<svg width="56" height="56" viewBox="0 0 56 56" fill="none" xmlns="http://www.w3.org/2000/svg">
<path d="M10.0311 31.4762L9.75109 30.6284C9.69664 30.4651 9.61887 30.3095 9.5022 30.1695C9.40109 30.0529 9.27664 29.9518 9.14442 29.874C9.00442 29.804 8.85664 29.7651 8.70109 29.7573C8.53775 29.7495 8.36664 29.7729 8.21109 29.8273C8.05553 29.874 7.90775 29.9595 7.77553 30.0607C7.65109 30.1618 7.54998 30.2862 7.47998 30.4262C7.4022 30.5662 7.36331 30.7218 7.34775 30.8773C7.3322 31.0484 7.36331 31.2273 7.41775 31.3907L7.95442 33.0084L11.6178 31.7951L11.3611 31.0251L10.0311 31.4762ZM8.33553 32.044L8.08664 31.3129C8.01664 31.0951 8.00887 30.9162 8.07887 30.784C8.14887 30.6518 8.26553 30.5506 8.41331 30.5118C8.55331 30.4573 8.71664 30.4651 8.85664 30.5273C8.98887 30.5895 9.08998 30.7295 9.16775 30.9551L9.40887 31.6862L8.33553 32.044Z" fill="white"/>
<path d="M10.5793 28.1013L9.07815 28.2569L8.9926 27.4013C8.96926 27.168 8.9926 27.0124 9.0626 26.9191C9.1326 26.8258 9.25704 26.7713 9.44371 26.748L10.4315 26.6469L10.3537 25.8613L9.26482 25.978C9.03926 26.0013 8.87593 26.0558 8.77482 26.1336C8.65815 26.2347 8.58815 26.3747 8.56482 26.5224C8.48704 26.3513 8.35482 26.2113 8.18371 26.1336C8.00482 26.048 7.81037 26.0169 7.61593 26.0402C7.46037 26.0558 7.32037 26.1024 7.18037 26.1724C7.05593 26.2424 6.93926 26.3358 6.85371 26.4524C6.76037 26.5691 6.69815 26.7091 6.65926 26.8491C6.62037 27.0124 6.60482 27.1758 6.62815 27.3391L6.83037 29.2913L10.6726 28.8947L10.5793 28.1013ZM7.40593 28.4358L7.29704 27.4013C7.27371 27.1991 7.3126 27.0513 7.39815 26.958C7.49148 26.8569 7.61593 26.7947 7.75593 26.7869C7.88815 26.7713 8.02815 26.8024 8.13704 26.8802C8.24593 26.958 8.30815 27.1058 8.33148 27.3235L8.4326 28.3269L7.40593 28.4358Z" fill="white"/>
<path d="M10.6845 22.6567L10.0001 22.5789L9.75899 24.71L8.77122 24.6011L8.98899 22.7189L8.31233 22.6489L8.10233 24.5233L7.27788 24.43L7.51121 22.3922L6.83455 22.3145L6.52344 25.1378L10.3579 25.5656L10.6845 22.6567Z" fill="white"/>
<path d="M11.2235 20.9924C11.3013 20.7747 11.3324 20.5336 11.3091 20.3002C11.2858 20.0747 11.2158 19.8647 11.0991 19.6702C10.9747 19.468 10.8113 19.2891 10.6247 19.1491C10.4069 18.9858 10.158 18.8613 9.90132 18.7758C9.64465 18.6824 9.38021 18.6436 9.10799 18.6436C8.87465 18.6513 8.64132 18.7058 8.42354 18.7991C8.21354 18.9002 8.03465 19.0402 7.88688 19.2113C7.73132 19.398 7.60688 19.6158 7.5291 19.8491L7.04688 21.2647L10.6947 22.5169L11.2235 20.9924ZM10.5547 20.938L10.3369 21.568L7.94132 20.7436L8.13576 20.1758C8.18243 20.0202 8.26021 19.8647 8.36132 19.7324C8.4391 19.6236 8.54799 19.538 8.67243 19.4836C8.80465 19.4291 8.95243 19.4136 9.09243 19.4291C9.2791 19.4524 9.45799 19.4913 9.63688 19.5536C10.0491 19.6936 10.3369 19.8802 10.4924 20.098C10.6402 20.3236 10.6635 20.6036 10.5547 20.938Z" fill="white"/>
<path d="M8.94203 16.6909L8.5625 17.4053L11.9693 19.2153L12.3488 18.501L8.94203 16.6909Z" fill="white"/>
<path d="M13.77 15.2061C13.6767 15.0116 13.56 14.8405 13.4123 14.685L12.9223 15.3305C13.07 15.4861 13.1634 15.6883 13.1867 15.9061C13.1945 16.1161 13.1323 16.3261 12.9923 16.4816C12.8056 16.7305 12.5645 16.8472 12.2845 16.8316C12.0045 16.8161 11.6856 16.6761 11.3434 16.4116C11.0011 16.1472 10.7911 15.8905 10.69 15.6183C10.5889 15.3461 10.6434 15.0739 10.8456 14.8094C10.9623 14.6539 11.1256 14.5528 11.3045 14.5061C11.5067 14.4594 11.7167 14.475 11.9034 14.5683L12.3934 13.9228C12.23 13.8216 12.0511 13.7516 11.8645 13.7128C11.6778 13.6739 11.4911 13.6739 11.3045 13.7128C11.11 13.7516 10.9234 13.8294 10.76 13.9383C10.5734 14.0628 10.41 14.2183 10.2778 14.3972C10.1223 14.5994 10.0056 14.8328 9.94337 15.0816C9.88892 15.315 9.88114 15.5483 9.93559 15.7816C9.99003 16.0305 10.0989 16.2639 10.2467 16.4661C10.4256 16.7072 10.6356 16.9172 10.8767 17.0961C11.11 17.2828 11.3745 17.4228 11.6545 17.5161C11.8878 17.5939 12.1367 17.6172 12.3856 17.6016C12.6189 17.5783 12.8367 17.5005 13.0311 17.3839C13.2334 17.2594 13.4123 17.0883 13.56 16.8939C13.6923 16.7305 13.7856 16.5439 13.8478 16.3416C13.9023 16.155 13.9256 15.9605 13.91 15.7739C13.9023 15.5716 13.8478 15.385 13.77 15.2061Z" fill="white"/>
<path d="M14.714 11.1149L14.2784 10.6016L11.8906 12.6471L12.334 13.1527L13.2128 12.3982L15.2895 14.8249L15.8962 14.296L13.8273 11.8771L14.714 11.1149Z" fill="white"/>
<path d="M20.5065 10.0889C20.4443 10.0111 20.3743 9.94111 20.2887 9.88667C20.2187 9.84 20.1332 9.80111 20.0476 9.78556C19.9621 9.77 19.8765 9.76222 19.791 9.76222C19.8999 9.66111 19.9699 9.52111 20.001 9.38111C20.0321 9.22556 20.0165 9.06222 19.9543 8.92222C19.8299 8.61889 19.6432 8.42444 19.3865 8.32333C19.1299 8.22222 18.8265 8.24556 18.4765 8.39333L16.7188 9.11667L18.1887 12.6867L19.7988 12.0256C20.2499 11.8389 20.5454 11.6056 20.6854 11.3256C20.8254 11.0378 20.8254 10.7033 20.6932 10.4156C20.6465 10.2911 20.5843 10.19 20.5065 10.0889ZM18.0099 10.2056L17.691 9.42778L18.5854 9.05444C18.7643 8.98444 18.8965 8.96111 19.0054 8.99222C19.1221 9.03111 19.2076 9.12444 19.2465 9.24111C19.3554 9.49778 19.2543 9.69222 18.951 9.81667L18.0099 10.2056ZM19.9465 11.0767C19.8765 11.2244 19.7521 11.3333 19.6043 11.3878L18.6554 11.7767L18.2588 10.8122L19.2154 10.4156C19.3554 10.3533 19.5032 10.33 19.651 10.3611C19.7832 10.4078 19.8921 10.5089 19.9387 10.6489C20.001 10.7889 20.0088 10.9444 19.9465 11.0767Z" fill="white"/>
<path d="M21.9237 10.6475L21.7449 9.66753L23.6115 9.33309L23.4871 8.6642L21.6282 8.99864L21.4882 8.18197L23.5026 7.8242L23.386 7.16309L20.5938 7.66086L21.2704 11.4564L24.156 10.9431L24.0315 10.2742L21.9237 10.6475Z" fill="white"/>
<path d="M27.4468 7.19382L24.3124 7.07715L24.2891 7.75381L25.448 7.7927L25.3391 10.9816L26.1402 11.0049L26.2568 7.82381L27.4235 7.87048L27.4468 7.19382Z" fill="white"/>
<path d="M29.4474 7.59878L28.5296 7.41211L26.4062 10.9199L27.2462 11.091L27.674 10.3677L29.0663 10.6554L29.144 11.4877L29.9996 11.6666L29.4474 7.59878ZM28.0163 9.75322L28.8096 8.34544H28.8174L28.9807 9.94766L28.0163 9.75322Z" fill="white"/>
<path d="M33.0412 33.9728C32.7379 34.2683 32.419 34.5406 32.0845 34.805L33.0179 36.5161C33.049 36.5783 33.0801 36.625 33.1034 36.6561C33.4379 36.4072 33.7645 36.1428 34.0756 35.8628C33.7256 35.2328 33.3834 34.6028 33.0412 33.9728ZM34.6356 16.4572C29.4167 11.2539 20.9701 11.2617 15.759 16.4806C10.5479 21.6994 10.5634 30.1461 15.7823 35.3572C17.2756 36.8506 19.1034 37.9628 21.1101 38.6083C21.499 38.7328 21.8956 38.8417 22.2923 38.9272C22.3623 38.7328 22.4945 38.5694 22.6656 38.4528C22.9067 38.2817 23.1867 38.165 23.4823 38.1183C24.1667 37.9939 24.8434 38.0406 25.5201 38.1261C26.5856 38.2739 27.6356 38.4994 28.6623 38.795C29.1056 38.6783 29.549 38.5306 29.9767 38.3672C29.6423 37.745 29.3001 37.1228 28.9656 36.5083C28.569 36.6483 28.1645 36.7728 27.7523 36.8661C27.4179 36.9439 27.0756 37.0061 26.7256 37.0528C25.5045 37.2161 24.2679 37.185 23.0623 36.9517C17.8667 35.9561 13.9312 31.375 13.9312 25.8994C13.9312 19.6928 18.9867 14.6372 25.1934 14.6372C31.4001 14.6372 36.4556 19.685 36.4556 25.8994C36.4556 27.595 36.0745 29.2672 35.3356 30.7917C35.7479 31.5072 36.129 32.2383 36.5256 32.9617C36.7901 32.5339 37.039 32.0983 37.249 31.6394C37.1868 31.5306 37.1245 31.4217 37.0623 31.3128C36.6112 30.5817 36.7434 29.4072 37.6845 28.8394C37.8634 28.7383 38.0579 28.6606 38.2601 28.6294C38.3456 28.2094 38.4156 27.7817 38.4623 27.3461C38.5168 26.8639 38.5401 26.3817 38.5401 25.8994C38.5556 22.3528 37.1479 18.9539 34.6356 16.4572Z" fill="#FF0D3B"/>
<path d="M32.3796 18.7133C28.413 14.7466 21.9807 14.7466 18.0141 18.7133C14.0474 22.6799 14.0474 29.1122 18.0141 33.0788C19.9196 34.9844 22.5018 36.0577 25.2007 36.0499C25.8774 36.0499 26.5463 35.9799 27.2074 35.8555C27.6274 35.7699 28.0318 35.6611 28.4363 35.5288C28.1096 34.9299 27.783 34.3311 27.4563 33.7399C27.0441 33.8566 26.6163 33.9499 26.1885 33.9966C25.8618 34.0355 25.5274 34.0588 25.193 34.0588C20.6818 34.0666 17.0185 30.4111 17.0107 25.8922C17.003 21.3811 20.6585 17.7177 25.1774 17.7099C29.6885 17.7022 33.3518 21.3577 33.3596 25.8766C33.3596 28.2333 32.3407 30.4811 30.5674 32.0366C30.8941 32.6355 31.2207 33.2344 31.5474 33.8255C31.8352 33.5922 32.1152 33.3433 32.3796 33.0788C32.4185 33.0399 32.4574 33.0011 32.4885 32.9622L32.2785 32.5733C31.8974 31.8733 31.9285 31.1888 32.3952 30.5355C32.8696 29.8666 33.7796 29.6955 34.4952 29.9911C34.6585 29.6177 34.8063 29.2288 34.923 28.8399C35.2107 27.8833 35.3585 26.8877 35.3507 25.8922C35.3585 23.2011 34.293 20.6188 32.3796 18.7133Z" fill="#FF0D3B"/>
<path d="M29.9932 21.1015C27.341 18.4492 23.0476 18.4492 20.3954 21.1015C17.7432 23.7537 17.7432 28.047 20.3954 30.6993C21.671 31.9748 23.3976 32.6904 25.1943 32.6826C25.2876 32.6826 25.381 32.6826 25.4665 32.6748C25.9099 32.6592 26.3454 32.597 26.781 32.4959C26.4154 31.827 26.0576 31.1659 25.6921 30.497C25.2099 30.5515 24.7199 30.5281 24.2454 30.427C21.741 29.9059 20.1387 27.4481 20.6676 24.9515C21.1965 22.4548 23.6465 20.8448 26.1432 21.3737C28.6476 21.8948 30.2499 24.3526 29.721 26.8493C29.6743 27.0748 29.6121 27.2926 29.5343 27.5026C29.3632 27.9692 29.1143 28.4048 28.7954 28.7937C29.161 29.4626 29.5187 30.1237 29.8843 30.7926L29.9854 30.6915C32.6454 28.047 32.6454 23.7537 29.9932 21.1015C30.001 21.1015 30.001 21.1015 29.9932 21.1015Z" fill="#FF0D3B"/>
<path d="M28.4052 25.9C28.4052 25.9311 28.4052 25.97 28.4052 26.0011C28.4052 26.0322 28.4052 26.0478 28.4052 26.0711C28.4052 26.0944 28.4052 26.1255 28.3974 26.1489C28.3896 26.1722 28.3974 26.2033 28.3896 26.2344C28.3819 26.2655 28.3896 26.2733 28.3819 26.2889C28.3741 26.3044 28.3741 26.3355 28.3741 26.3589C28.3741 26.3667 28.3741 26.3744 28.3741 26.3822C28.3741 26.3978 28.3663 26.4133 28.3663 26.4289C28.3663 26.4444 28.3585 26.4678 28.3585 26.4833C28.3585 26.4989 28.3507 26.5222 28.3507 26.5455C28.3507 26.5455 28.3507 26.5533 28.3507 26.5611C28.343 26.5844 28.343 26.6078 28.3352 26.6389C28.3274 26.67 28.3196 26.6933 28.3196 26.7167C28.3196 26.74 28.3041 26.7711 28.2963 26.7944C28.2807 26.8567 28.2652 26.9111 28.2419 26.9655C28.2341 27.0044 28.2185 27.0355 28.203 27.0667C28.1952 27.09 28.1874 27.1211 28.1719 27.1444L28.1641 27.16C28.1485 27.2067 28.1252 27.2455 28.1018 27.2922C28.0941 27.3078 28.0941 27.3155 28.0863 27.3311C28.0785 27.3544 28.0707 27.37 28.0552 27.3933L28.0474 27.4011C27.7285 26.8178 27.4096 26.2267 27.083 25.6433C26.5541 24.71 25.1774 24.5 24.3841 25.2233C23.7696 25.7833 23.6219 26.6855 24.0107 27.4089C24.3141 27.9689 24.6252 28.5367 24.9285 29.0967C24.2519 29.0422 23.6141 28.7778 23.1007 28.3344C21.7552 27.1755 21.6074 25.1533 22.7585 23.8078C23.9096 22.4622 25.9396 22.3144 27.2852 23.4655C27.8452 23.9478 28.2263 24.6167 28.3507 25.3478C28.3585 25.3944 28.3663 25.4411 28.3741 25.4878C28.3818 25.5189 28.3819 25.5578 28.3819 25.5889L28.3896 25.6511C28.3896 25.6744 28.3896 25.7055 28.3974 25.7289C28.3974 25.7444 28.3974 25.76 28.3974 25.7833C28.4052 25.8222 28.4052 25.8611 28.4052 25.9Z" fill="#FF0D3B"/>
<path d="M37.7804 32.604C37.5937 32.2851 37.4304 31.9585 37.2515 31.6318C37.0337 32.0829 36.7926 32.5263 36.5282 32.9463C36.5671 33.0163 36.606 33.0862 36.6371 33.1562C36.7849 33.4207 36.7849 33.4207 37.0337 33.2807C37.2437 33.164 37.4537 33.0396 37.6637 32.9385C37.8504 32.8607 37.8815 32.7751 37.7804 32.604ZM34.1249 35.9562C34.1093 35.9251 34.0937 35.894 34.0782 35.8629C33.736 35.2329 33.386 34.6029 33.0437 33.9651C32.8571 33.6307 32.6782 33.2962 32.4993 32.9618C32.4604 33.0007 32.4215 33.0396 32.3826 33.0785C32.1182 33.3429 31.846 33.5918 31.5504 33.8251C31.7293 34.1518 31.9082 34.4785 32.0871 34.8051C32.3982 35.3729 32.7093 35.9485 33.0204 36.5163C33.0515 36.5785 33.0826 36.6251 33.106 36.6562C33.1837 36.7729 33.2304 36.7418 33.4404 36.6329C33.6504 36.524 33.8371 36.4151 34.0393 36.3062C34.2493 36.1896 34.2493 36.1818 34.1249 35.9562ZM37.7804 32.604C37.5937 32.2851 37.4304 31.9585 37.2515 31.6318C37.0337 32.0829 36.7926 32.5263 36.5282 32.9463C36.5671 33.0163 36.606 33.0862 36.6371 33.1562C36.7849 33.4207 36.7849 33.4207 37.0337 33.2807C37.2437 33.164 37.4537 33.0396 37.6637 32.9385C37.8504 32.8607 37.8815 32.7751 37.7804 32.604ZM34.1249 35.9562C34.1093 35.9251 34.0937 35.894 34.0782 35.8629C33.736 35.2329 33.386 34.6029 33.0437 33.9651C32.8571 33.6307 32.6782 33.2962 32.4993 32.9618C32.4604 33.0007 32.4215 33.0396 32.3826 33.0785C32.1182 33.3429 31.846 33.5918 31.5504 33.8251C31.7293 34.1518 31.9082 34.4785 32.0871 34.8051C32.3982 35.3729 32.7093 35.9485 33.0204 36.5163C33.0515 36.5785 33.0826 36.6251 33.106 36.6562C33.1837 36.7729 33.2304 36.7418 33.4404 36.6329C33.6504 36.524 33.8371 36.4151 34.0393 36.3062C34.2493 36.1896 34.2493 36.1818 34.1249 35.9562ZM37.7804 32.604C37.5937 32.2851 37.4304 31.9585 37.2515 31.6318C37.0337 32.0829 36.7926 32.5263 36.5282 32.9463C36.5671 33.0163 36.606 33.0862 36.6371 33.1562C36.7849 33.4207 36.7849 33.4207 37.0337 33.2807C37.2437 33.164 37.4537 33.0396 37.6637 32.9385C37.8504 32.8607 37.8815 32.7751 37.7804 32.604ZM35.7737 29.1429C35.7193 29.2518 35.6882 29.314 35.5482 29.2129C35.3537 29.0651 35.1437 28.9407 34.9182 28.8474C34.2571 28.5596 33.5182 28.5285 32.8337 28.754C32.1415 28.9796 31.5504 29.454 31.1849 30.084C31.1537 30.1385 31.146 30.2396 31.0682 30.2396C30.9904 30.2396 30.9749 30.1307 30.936 30.0685L30.7726 29.7651C30.3604 29.0107 29.9482 28.2563 29.536 27.5018C29.3415 27.1518 29.1549 26.8018 28.9604 26.4596C28.7582 26.094 28.5637 25.7129 28.3537 25.3474C28.3615 25.394 28.3693 25.4407 28.3771 25.4874C28.3849 25.5185 28.3849 25.5574 28.3849 25.5885L28.3926 25.6507C28.3926 25.674 28.3926 25.7051 28.4004 25.7285C28.4004 25.744 28.4004 25.7596 28.4004 25.7829C28.4004 25.8062 28.4004 25.814 28.4004 25.8218V25.8996C28.4004 25.9307 28.4004 25.9696 28.4004 26.0007C28.4004 26.0318 28.4004 26.0474 28.4004 26.0707C28.4004 26.094 28.4004 26.1251 28.3926 26.1485C28.3926 26.164 28.3926 26.1874 28.3926 26.2029C28.3926 26.2107 28.3926 26.2185 28.3926 26.234C28.3926 26.2496 28.3926 26.2729 28.3849 26.2885C28.3771 26.304 28.3771 26.3351 28.3771 26.3585C28.3771 26.3662 28.3771 26.374 28.3771 26.3818C28.3771 26.3974 28.3693 26.4129 28.3693 26.4285C28.3693 26.444 28.3615 26.4674 28.3615 26.4829C28.3615 26.4985 28.3537 26.5218 28.3537 26.5451C28.3537 26.5451 28.3537 26.5529 28.3537 26.5607C28.346 26.584 28.346 26.6074 28.3382 26.6385C28.3304 26.6696 28.3226 26.6929 28.3226 26.7162L28.3149 26.7396C28.3071 26.7551 28.3071 26.7707 28.2993 26.794C28.2837 26.8562 28.2682 26.9107 28.2449 26.9651C28.2371 27.004 28.2215 27.0351 28.206 27.0662C28.1982 27.0896 28.1904 27.1207 28.1749 27.144L28.1671 27.1596C28.1593 27.1829 28.1437 27.2063 28.136 27.2296C28.1282 27.2529 28.1204 27.2685 28.1049 27.2918C28.0893 27.3151 28.0971 27.3151 28.0893 27.3307C28.0815 27.354 28.0737 27.3696 28.0582 27.3929L28.0504 27.4007C28.1515 27.5796 28.2449 27.7585 28.346 27.9451C28.5015 28.2329 28.6571 28.5207 28.8126 28.8007L29.9015 30.7996L30.5782 32.0362C30.9049 32.6351 31.2315 33.234 31.5582 33.8329C31.7371 34.1596 31.916 34.4863 32.0949 34.8129C32.406 35.3807 32.7171 35.9563 33.0282 36.524C33.0593 36.5863 33.0904 36.6329 33.1137 36.664C33.1915 36.7807 33.2382 36.7496 33.4482 36.6407C33.6582 36.5318 33.8449 36.4229 34.0471 36.314C34.2649 36.1974 34.2649 36.1896 34.1404 35.964C34.1249 35.9329 34.1093 35.9018 34.0937 35.8707C33.7515 35.2407 33.4015 34.6107 33.0593 33.9729C32.8726 33.6385 32.6937 33.304 32.5149 32.9696L32.3049 32.5807C31.9237 31.8807 31.9549 31.1963 32.4215 30.5429C32.9037 29.874 33.806 29.7029 34.5215 29.9985C34.8482 30.1307 35.1204 30.364 35.2993 30.6674C35.3226 30.7062 35.346 30.7451 35.3693 30.784C35.7115 30.0762 35.9837 29.3296 36.1704 28.5674C35.9993 28.7462 35.8826 28.9407 35.7737 29.1429ZM37.7804 32.604C37.5937 32.2851 37.4304 31.9585 37.2515 31.6318C37.0337 32.0829 36.7926 32.5263 36.5282 32.9463C36.5671 33.0163 36.606 33.0862 36.6371 33.1562C36.7849 33.4207 36.7849 33.4207 37.0337 33.2807C37.2437 33.164 37.4537 33.0396 37.6637 32.9385C37.8504 32.8607 37.8815 32.7751 37.7804 32.604ZM35.7737 29.1429C35.7193 29.2518 35.6882 29.314 35.5482 29.2129C35.3537 29.0651 35.1437 28.9407 34.9182 28.8474C34.2571 28.5596 33.5182 28.5285 32.8337 28.754C32.1415 28.9796 31.5504 29.454 31.1849 30.084C31.1537 30.1385 31.146 30.2396 31.0682 30.2396C30.9904 30.2396 30.9749 30.1307 30.936 30.0685L30.7726 29.7651C30.3604 29.0107 29.9482 28.2563 29.536 27.5018C29.3415 27.1518 29.1549 26.8018 28.9604 26.4596C28.7582 26.094 28.5637 25.7129 28.3537 25.3474C28.2682 25.1918 28.1749 25.0362 28.0815 24.8885C27.1871 23.4962 25.3282 23.0918 23.936 23.9862C23.7493 24.1029 23.5782 24.2429 23.4226 24.3985C22.4426 25.3707 22.2482 26.7785 22.9093 27.9996C22.9715 28.1163 23.0337 28.2251 23.096 28.334C23.4771 29.034 23.8582 29.7263 24.2393 30.4263C24.6437 31.1729 25.056 31.9274 25.4682 32.674C25.7093 33.1096 25.9504 33.5529 26.1915 33.9885C26.6193 33.934 27.0471 33.8485 27.4593 33.7318C27.3582 33.5529 27.2649 33.3818 27.1715 33.2029C27.0393 32.9696 26.9149 32.7285 26.7826 32.4951C26.4171 31.8262 26.0593 31.1651 25.6937 30.4963C25.4371 30.0296 25.1882 29.5629 24.9315 29.0963C24.6204 28.5363 24.3171 27.9685 24.0137 27.4085C23.6171 26.6774 23.7726 25.7751 24.3871 25.2229C25.1804 24.4918 26.5571 24.7018 27.086 25.6429C27.4126 26.2263 27.7315 26.8096 28.0504 27.4007C28.1515 27.5796 28.2449 27.7585 28.346 27.9451C28.5015 28.2329 28.6571 28.5207 28.8126 28.8007L29.9015 30.7996L30.5782 32.0362C30.9049 32.6351 31.2315 33.234 31.5582 33.8329C31.7371 34.1596 31.916 34.4863 32.0949 34.8129C32.406 35.3807 32.7171 35.9563 33.0282 36.524C33.0593 36.5863 33.0904 36.6329 33.1137 36.664C33.1915 36.7807 33.2382 36.7496 33.4482 36.6407C33.6582 36.5318 33.8449 36.4229 34.0471 36.314C34.2649 36.1974 34.2649 36.1896 34.1404 35.964C34.1249 35.9329 34.1093 35.9018 34.0937 35.8707C33.7515 35.2407 33.4015 34.6107 33.0593 33.9729C32.8726 33.6385 32.6937 33.304 32.5149 32.9696L32.3049 32.5807C31.9237 31.8807 31.9549 31.1963 32.4215 30.5429C32.9037 29.874 33.806 29.7029 34.5215 29.9985C34.8482 30.1307 35.1204 30.364 35.2993 30.6674C35.3226 30.7062 35.346 30.7451 35.3693 30.784C35.7115 30.0762 35.9837 29.3296 36.1704 28.5674C35.9993 28.7462 35.8826 28.9407 35.7737 29.1429ZM50.0615 35.0774C48.9182 32.9774 47.7749 30.8774 46.6237 28.7774C46.5071 28.5674 46.3749 28.3651 46.2115 28.1862C45.2082 27.0274 43.4893 26.8174 42.2293 27.6963C41.7937 27.9996 41.4437 28.404 41.2104 28.8785C41.1793 28.8318 41.1637 28.8163 41.1482 28.7929C40.6193 27.9451 39.8571 27.4551 38.8615 27.354C38.7293 27.3385 38.5971 27.3385 38.4649 27.3463C37.5471 27.3851 36.6915 27.8362 36.1393 28.5674C35.9993 28.7462 35.8749 28.9407 35.7737 29.1429C35.7193 29.2518 35.6882 29.314 35.5482 29.2129C35.3537 29.0651 35.1437 28.9407 34.9182 28.8474C34.2571 28.5596 33.5182 28.5285 32.8337 28.754C32.1415 28.9796 31.5504 29.454 31.1849 30.084C31.1537 30.1385 31.146 30.2396 31.0682 30.2396C30.9904 30.2396 30.9749 30.1307 30.936 30.0685L30.7726 29.7651C30.3604 29.0107 29.9482 28.2563 29.536 27.5018C29.3415 27.1518 29.1549 26.8018 28.9604 26.4596C28.7582 26.094 28.5637 25.7129 28.3537 25.3474C28.2682 25.1918 28.1749 25.0362 28.0815 24.8885C27.1871 23.4962 25.3282 23.0918 23.936 23.9862C23.7493 24.1029 23.5782 24.2429 23.4226 24.3985C22.4426 25.3707 22.2482 26.7785 22.9093 27.9996C22.9715 28.1163 23.0337 28.2251 23.096 28.334C23.4771 29.034 23.8582 29.7263 24.2393 30.4263C24.6437 31.1729 25.056 31.9274 25.4682 32.674C25.7093 33.1096 25.9504 33.5529 26.1915 33.9885L27.2026 35.8551L27.7549 36.8663C27.7937 36.944 27.8404 37.014 27.8793 37.0918C27.9182 37.1696 27.9493 37.2163 27.996 37.3096C27.9182 37.294 27.8793 37.294 27.8404 37.2863C27.4671 37.2007 27.0937 37.1229 26.7204 37.0529C26.2149 37.1229 25.7015 37.1618 25.1882 37.1618C24.4726 37.1618 23.7571 37.0918 23.0571 36.9596C22.3726 37.1151 21.7737 37.4262 21.3615 38.0562C21.2449 38.2274 21.1593 38.414 21.0971 38.6163C20.9026 39.2463 21.0037 39.9385 21.3693 40.4907C21.766 41.0974 22.3104 41.5485 22.886 41.9607C24.1071 42.8318 25.4371 43.5085 26.7593 44.2007C28.7737 45.2585 30.8037 46.3007 32.7326 47.5063C33.9149 48.2451 35.0971 48.9685 36.4115 49.4663C39.336 50.5629 42.2371 50.6251 45.1149 49.3496C46.4215 48.7818 47.6037 47.9496 48.576 46.9074C51.5549 43.6874 52.1537 38.9274 50.0615 35.0774ZM46.9426 46.7207C46.1571 47.4518 45.2315 47.9651 44.236 48.3696C43.186 48.8051 42.0737 49.0463 40.9382 49.0696C39.6626 49.1007 38.4415 48.8363 37.2437 48.424C35.7271 47.8951 34.3582 47.0785 32.9815 46.2696C31.006 45.1107 28.9837 44.0374 26.9771 42.9407C25.8182 42.3107 24.6437 41.6962 23.5549 40.934C23.1737 40.6851 22.8315 40.3818 22.536 40.0318C22.2482 39.6818 22.1704 39.2696 22.2949 38.9196C22.3649 38.7251 22.4971 38.554 22.6682 38.4451C22.9171 38.274 23.1893 38.1651 23.4849 38.1107C24.1693 37.9862 24.846 38.0329 25.5226 38.1185C26.5882 38.2663 27.6382 38.4918 28.6649 38.7874C29.1626 38.9274 29.6526 39.0751 30.1426 39.2229C30.236 39.254 30.3682 39.3551 30.4382 39.2618C30.4926 39.1918 30.376 39.0829 30.3293 38.9974L29.9793 38.3596C29.6449 37.7374 29.3026 37.1151 28.9682 36.5007C28.7893 36.174 28.6104 35.8474 28.4315 35.5207C28.1049 34.9218 27.7782 34.3307 27.4593 33.7318C27.3582 33.5529 27.2649 33.3818 27.1715 33.2029C27.0393 32.9696 26.9149 32.7285 26.7826 32.4951C26.4171 31.8262 26.0593 31.1651 25.6937 30.4963C25.4371 30.0296 25.1882 29.5629 24.9315 29.0963C24.6204 28.5363 24.3171 27.9685 24.0137 27.4085C23.6171 26.6774 23.7726 25.7751 24.3871 25.2229C25.1804 24.4918 26.5571 24.7018 27.086 25.6429C27.4126 26.2263 27.7315 26.8096 28.0504 27.4007C28.1515 27.5796 28.2449 27.7585 28.346 27.9451C28.5015 28.2329 28.6571 28.5207 28.8126 28.8007L29.9015 30.7996L30.586 32.0362C30.9126 32.6351 31.2393 33.234 31.566 33.8329C31.7449 34.1596 31.9237 34.4863 32.1026 34.8129C32.4137 35.3807 32.7249 35.9563 33.036 36.524C33.0671 36.5863 33.0982 36.6329 33.1215 36.664C33.1993 36.7807 33.246 36.7496 33.456 36.6407C33.666 36.5318 33.8526 36.4229 34.0549 36.314C34.2726 36.1974 34.2726 36.1896 34.1482 35.964C34.1326 35.9329 34.1171 35.9018 34.1015 35.8707C33.7593 35.2407 33.4093 34.6107 33.0671 33.9729C32.8804 33.6385 32.7015 33.304 32.5226 32.9696L32.3126 32.5807C31.9315 31.8807 31.9626 31.1963 32.4293 30.5429C32.9115 29.874 33.8137 29.7029 34.5293 29.9985C34.856 30.1307 35.1282 30.364 35.3071 30.6674C35.3304 30.7062 35.3537 30.7451 35.3771 30.784C35.7893 31.4996 36.1704 32.2307 36.5671 32.954C36.606 33.024 36.6449 33.094 36.676 33.164C36.8237 33.4285 36.8237 33.4285 37.0726 33.2885C37.2826 33.1718 37.4926 33.0474 37.7026 32.9463C37.8737 32.8685 37.9049 32.7751 37.8115 32.604C37.6249 32.2851 37.4615 31.9585 37.2826 31.6318C37.2204 31.5229 37.1582 31.414 37.096 31.3051C36.6449 30.574 36.7771 29.3918 37.7182 28.8318C37.8971 28.7229 38.0915 28.6529 38.2937 28.6218C38.9237 28.5207 39.5615 28.7618 39.9737 29.244C40.0593 29.3529 40.1371 29.4696 40.2071 29.5862C40.6349 30.3718 41.0626 31.1574 41.4904 31.9351C41.6226 32.1685 41.6226 32.1685 41.8637 32.044C42.0815 31.9274 42.3071 31.7951 42.5326 31.6862C42.6726 31.6163 42.6882 31.5307 42.6104 31.3985C42.5093 31.2274 42.416 31.0562 42.346 30.8696C42.0349 30.0762 42.3226 29.1196 42.9915 28.6996C43.7382 28.2174 44.726 28.3496 45.3171 29.0185C45.3949 29.1118 45.4649 29.2129 45.5193 29.314C46.7326 31.5385 47.9615 33.7629 49.1515 36.0029C49.696 37.0296 49.9449 38.1496 49.9915 39.3007C50.0615 42.2329 49.0971 44.7218 46.9426 46.7207ZM35.7737 29.1429C35.7193 29.2518 35.6882 29.314 35.5482 29.2129C35.3537 29.0651 35.1437 28.9485 34.9182 28.8474C34.2571 28.5596 33.5182 28.5285 32.8337 28.754C32.1415 28.9796 31.5504 29.454 31.1849 30.084C31.1537 30.1385 31.146 30.2396 31.0682 30.2396C30.9904 30.2396 30.9749 30.1307 30.936 30.0685L30.7726 29.7651C30.3604 29.0107 29.9482 28.2563 29.536 27.5018C29.3415 27.1518 29.1549 26.8018 28.9604 26.4596C28.7582 26.094 28.5637 25.7129 28.3537 25.3474C28.2682 25.1918 28.1749 25.0362 28.0815 24.8885C27.1871 23.4962 25.3282 23.0918 23.936 23.9862C23.7493 24.1029 23.5782 24.2429 23.4226 24.3985C22.4426 25.3707 22.2482 26.7785 22.9093 27.9996C22.9715 28.1163 23.0337 28.2251 23.096 28.334C23.4771 29.034 23.8582 29.7263 24.2393 30.4263C24.6437 31.1729 25.056 31.9274 25.4682 32.674C25.7093 33.1096 25.9504 33.5529 26.1915 33.9885C26.6193 33.934 27.0471 33.8485 27.4593 33.7318C27.3582 33.5529 27.2649 33.3818 27.1715 33.2029C27.0393 32.9696 26.9149 32.7285 26.7826 32.4951C26.4171 31.8262 26.0593 31.1651 25.6937 30.4963C25.4371 30.0296 25.1882 29.5629 24.9315 29.0963C24.6204 28.5363 24.3171 27.9685 24.0137 27.4085C23.6171 26.6774 23.7726 25.7751 24.3871 25.2229C25.1804 24.4918 26.5571 24.7018 27.086 25.6429C27.4126 26.2263 27.7315 26.8096 28.0504 27.4007C28.1515 27.5796 28.2449 27.7585 28.346 27.9451C28.5015 28.2329 28.6571 28.5207 28.8126 28.8007L29.9015 30.7996L30.5782 32.0362C30.9049 32.6351 31.2315 33.234 31.5582 33.8329C31.7371 34.1596 31.916 34.4863 32.0949 34.8129C32.406 35.3807 32.7171 35.9563 33.0282 36.524C33.0593 36.5863 33.0904 36.6329 33.1137 36.664C33.1915 36.7807 33.2382 36.7496 33.4482 36.6407C33.6582 36.5318 33.8449 36.4229 34.0471 36.314C34.2649 36.1974 34.2649 36.1896 34.1404 35.964C34.1249 35.9329 34.1093 35.9018 34.0937 35.8707C33.7515 35.2407 33.4015 34.6107 33.0593 33.9729C32.8726 33.6385 32.6937 33.304 32.5149 32.9696L32.3049 32.5807C31.9237 31.8807 31.9549 31.1963 32.4215 30.5429C32.9037 29.874 33.806 29.7029 34.5215 29.9985C34.8482 30.1307 35.1204 30.364 35.2993 30.6674C35.3226 30.7062 35.346 30.7451 35.3693 30.784C35.7115 30.0762 35.9837 29.3296 36.1704 28.5674C35.9993 28.7462 35.8826 28.9407 35.7737 29.1429ZM37.7804 32.604C37.5937 32.2851 37.4304 31.9585 37.2515 31.6318C37.0337 32.0829 36.7926 32.5263 36.5282 32.9463C36.5671 33.0163 36.606 33.0862 36.6371 33.1562C36.7849 33.4207 36.7849 33.4207 37.0337 33.2807C37.2437 33.164 37.4537 33.0396 37.6637 32.9385C37.8504 32.8607 37.8815 32.7751 37.7804 32.604ZM35.7737 29.1429C35.7193 29.2518 35.6882 29.314 35.5482 29.2129C35.3537 29.0651 35.1437 28.9485 34.9182 28.8474C34.2571 28.5596 33.5182 28.5285 32.8337 28.754C32.1415 28.9796 31.5504 29.454 31.1849 30.084C31.1537 30.1385 31.146 30.2396 31.0682 30.2396C30.9904 30.2396 30.9749 30.1307 30.936 30.0685L30.7726 29.7651C30.3604 29.0107 29.9482 28.2563 29.536 27.5018C29.3415 27.1518 29.1549 26.8018 28.9604 26.4596C28.7582 26.094 28.5637 25.7129 28.3537 25.3474C28.3615 25.394 28.3693 25.4407 28.3771 25.4874C28.3849 25.5185 28.3849 25.5574 28.3849 25.5885L28.3926 25.6507C28.3926 25.674 28.3926 25.7051 28.4004 25.7285C28.4004 25.744 28.4004 25.7596 28.4004 25.7829C28.4004 25.8062 28.4004 25.814 28.4004 25.8218V25.8996C28.4004 25.9307 28.4004 25.9696 28.4004 26.0007C28.4004 26.0318 28.4004 26.0474 28.4004 26.0707C28.4004 26.094 28.4004 26.1251 28.3926 26.1485C28.3926 26.164 28.3926 26.1874 28.3926 26.2029C28.3926 26.2107 28.3926 26.2185 28.3926 26.234C28.3926 26.2496 28.3926 26.2729 28.3849 26.2885C28.3771 26.304 28.3771 26.3351 28.3771 26.3585C28.3771 26.3662 28.3771 26.374 28.3771 26.3818C28.3771 26.3974 28.3693 26.4129 28.3693 26.4285C28.3693 26.444 28.3615 26.4674 28.3615 26.4829C28.3615 26.4985 28.3537 26.5218 28.3537 26.5451C28.3537 26.5451 28.3537 26.5529 28.3537 26.5607C28.346 26.584 28.346 26.6074 28.3382 26.6385C28.3304 26.6696 28.3226 26.6929 28.3226 26.7162L28.3149 26.7396C28.3071 26.7551 28.3071 26.7707 28.2993 26.794C28.2837 26.8562 28.2682 26.9107 28.2449 26.9651C28.2371 27.004 28.2215 27.0351 28.206 27.0662C28.1982 27.0896 28.1904 27.1207 28.1749 27.144L28.1671 27.1596C28.1593 27.1829 28.1437 27.2063 28.136 27.2296C28.1282 27.2529 28.1204 27.2685 28.1049 27.2918C28.0893 27.3151 28.0971 27.3151 28.0893 27.3307C28.0815 27.354 28.0737 27.3696 28.0582 27.3929L28.0504 27.4007C28.1515 27.5796 28.2449 27.7585 28.346 27.9451C28.5015 28.2329 28.6571 28.5207 28.8126 28.8007L29.9015 30.7996L30.5782 32.0362C30.9049 32.6351 31.2315 33.234 31.5582 33.8329C31.7371 34.1596 31.916 34.4863 32.0949 34.8129C32.406 35.3807 32.7171 35.9563 33.0282 36.524C33.0593 36.5863 33.0904 36.6329 33.1137 36.664C33.1915 36.7807 33.2382 36.7496 33.4482 36.6407C33.6582 36.5318 33.8449 36.4229 34.0471 36.314C34.2649 36.1974 34.2649 36.1896 34.1404 35.964C34.1249 35.9329 34.1093 35.9018 34.0937 35.8707C33.7515 35.2407 33.4015 34.6107 33.0593 33.9729C32.8726 33.6385 32.6937 33.304 32.5149 32.9696L32.3049 32.5807C31.9237 31.8807 31.9549 31.1963 32.4215 30.5429C32.9037 29.874 33.806 29.7029 34.5215 29.9985C34.8482 30.1307 35.1204 30.364 35.2993 30.6674C35.3226 30.7062 35.346 30.7451 35.3693 30.784C35.7115 30.0762 35.9837 29.3296 36.1704 28.5674C35.9993 28.7462 35.8826 28.9407 35.7737 29.1429ZM37.7804 32.604C37.5937 32.2851 37.4304 31.9585 37.2515 31.6318C37.0337 32.0829 36.7926 32.5263 36.5282 32.9463C36.5671 33.0163 36.606 33.0862 36.6371 33.1562C36.7849 33.4207 36.7849 33.4207 37.0337 33.2807C37.2437 33.164 37.4537 33.0396 37.6637 32.9385C37.8504 32.8607 37.8815 32.7751 37.7804 32.604ZM35.7737 29.1429C35.7193 29.2518 35.6882 29.314 35.5482 29.2129C35.3537 29.0651 35.1437 28.9485 34.9182 28.8474C34.2571 28.5596 33.5182 28.5285 32.8337 28.754C32.1415 28.9796 31.5504 29.454 31.1849 30.084C31.1537 30.1385 31.146 30.2396 31.0682 30.2396C30.9904 30.2396 30.9749 30.1307 30.936 30.0685L30.7726 29.7651C30.3604 29.0107 29.9482 28.2563 29.536 27.5018C29.3415 27.1518 29.1549 26.8018 28.9604 26.4596C28.7582 26.094 28.5637 25.7129 28.3537 25.3474C28.3615 25.394 28.3693 25.4407 28.3771 25.4874C28.3849 25.5185 28.3849 25.5574 28.3849 25.5885L28.3926 25.6507C28.3926 25.674 28.3926 25.7051 28.4004 25.7285C28.4004 25.744 28.4004 25.7596 28.4004 25.7829C28.4004 25.8062 28.4004 25.814 28.4004 25.8218V25.8996C28.4004 25.9307 28.4004 25.9696 28.4004 26.0007C28.4004 26.0318 28.4004 26.0474 28.4004 26.0707C28.4004 26.094 28.4004 26.1251 28.3926 26.1485C28.3926 26.164 28.3926 26.1874 28.3926 26.2029C28.3926 26.2107 28.3926 26.2185 28.3926 26.234C28.3926 26.2496 28.3926 26.2729 28.3849 26.2885C28.3771 26.304 28.3771 26.3351 28.3771 26.3585C28.3771 26.3662 28.3771 26.374 28.3771 26.3818C28.3771 26.3974 28.3693 26.4129 28.3693 26.4285C28.3693 26.444 28.3615 26.4674 28.3615 26.4829C28.3615 26.4985 28.3537 26.5218 28.3537 26.5451C28.3537 26.5451 28.3537 26.5529 28.3537 26.5607C28.346 26.584 28.346 26.6074 28.3382 26.6385C28.3304 26.6696 28.3226 26.6929 28.3226 26.7162L28.3149 26.7396C28.3071 26.7551 28.3071 26.7707 28.2993 26.794C28.2837 26.8562 28.2682 26.9107 28.2449 26.9651C28.2371 27.004 28.2215 27.0351 28.206 27.0662C28.1982 27.0896 28.1904 27.1207 28.1749 27.144L28.1671 27.1596C28.1593 27.1829 28.1437 27.2063 28.136 27.2296C28.1282 27.2529 28.1204 27.2685 28.1049 27.2918C28.0893 27.3151 28.0971 27.3151 28.0893 27.3307C28.0815 27.354 28.0737 27.3696 28.0582 27.3929L28.0504 27.4007C28.1515 27.5796 28.2449 27.7585 28.346 27.9451C28.5015 28.2329 28.6571 28.5207 28.8126 28.8007L29.9015 30.7996L30.5782 32.0362C30.9049 32.6351 31.2315 33.234 31.5582 33.8329C31.7371 34.1596 31.916 34.4863 32.0949 34.8129C32.406 35.3807 32.7171 35.9563 33.0282 36.524C33.0593 36.5863 33.0904 36.6329 33.1137 36.664C33.1915 36.7807 33.2382 36.7496 33.4482 36.6407C33.6582 36.5318 33.8449 36.4229 34.0471 36.314C34.2649 36.1974 34.2649 36.1896 34.1404 35.964C34.1249 35.9329 34.1093 35.9018 34.0937 35.8707C33.7515 35.2407 33.4015 34.6107 33.0593 33.9729C32.8726 33.6385 32.6937 33.304 32.5149 32.9696L32.3049 32.5807C31.9237 31.8807 31.9549 31.1963 32.4215 30.5429C32.9037 29.874 33.806 29.7029 34.5215 29.9985C34.8482 30.1307 35.1204 30.364 35.2993 30.6674C35.3226 30.7062 35.346 30.7451 35.3693 30.784C35.7115 30.0762 35.9837 29.3296 36.1704 28.5674C35.9993 28.7462 35.8826 28.9407 35.7737 29.1429ZM37.7804 32.604C37.5937 32.2851 37.4304 31.9585 37.2515 31.6318C37.0337 32.0829 36.7926 32.5263 36.5282 32.9463C36.5671 33.0163 36.606 33.0862 36.6371 33.1562C36.7849 33.4207 36.7849 33.4207 37.0337 33.2807C37.2437 33.164 37.4537 33.0396 37.6637 32.9385C37.8504 32.8607 37.8815 32.7751 37.7804 32.604ZM34.1249 35.9562C34.1093 35.9251 34.0937 35.894 34.0782 35.8629C33.736 35.2329 33.386 34.6029 33.0437 33.9651C32.8571 33.6307 32.6782 33.2962 32.4993 32.9618C32.4604 33.0007 32.4215 33.0396 32.3826 33.0785C32.1182 33.3429 31.846 33.5918 31.5504 33.8251C31.7293 34.1518 31.9082 34.4785 32.0871 34.8051C32.3982 35.3729 32.7093 35.9485 33.0204 36.5163C33.0515 36.5785 33.0826 36.6251 33.106 36.6562C33.1837 36.7729 33.2304 36.7418 33.4404 36.6329C33.6504 36.524 33.8371 36.4151 34.0393 36.3062C34.2493 36.1896 34.2493 36.1818 34.1249 35.9562ZM37.7804 32.604C37.5937 32.2851 37.4304 31.9585 37.2515 31.6318C37.0337 32.0829 36.7926 32.5263 36.5282 32.9463C36.5671 33.0163 36.606 33.0862 36.6371 33.1562C36.7849 33.4207 36.7849 33.4207 37.0337 33.2807C37.2437 33.164 37.4537 33.0396 37.6637 32.9385C37.8504 32.8607 37.8815 32.7751 37.7804 32.604Z" fill="white"/>
</svg>
