<svg width="68" height="78" viewBox="0 0 68 78" fill="none" xmlns="http://www.w3.org/2000/svg">
<path fill-rule="evenodd" clip-rule="evenodd" d="M23.0917 37.2632C22.844 38.9224 25.8404 41.5968 27.0042 42.4883C30.9664 45.5094 37.3058 45.4599 41.2926 42.5626C42.3327 41.8197 43.0013 41.2254 43.7194 40.3091C44.2147 39.69 45.4281 38.3528 45.3043 37.2632C44.71 36.9413 42.7041 36.768 41.8622 37.0651C41.2926 37.2632 40.9955 38.1052 39.9554 39.0214C36.4886 42.0921 30.793 41.7949 27.549 38.1795C27.2271 37.8328 27.029 37.3375 26.5833 37.1147C25.8651 36.768 23.6364 36.9413 23.0669 37.2632H23.0917Z" fill="#D1AC42"/>
<path fill-rule="evenodd" clip-rule="evenodd" d="M51.4703 59.2283L38.1972 52.8641C38.0487 52.7898 35.919 53.1613 33.8884 53.1365C21.8535 53.0127 12.7159 41.7949 15.0931 29.6114C17.4209 17.6756 30.2482 10.8657 40.8964 15.1992C53.9467 20.5233 57.5126 36.2975 48.1025 47.02L51.4951 59.2035L51.4703 59.2283ZM13.7807 6.82927C13.2854 7.62169 11.4034 9.10748 10.6605 9.82562C9.57095 10.8657 8.55566 12.4505 7.788 12.8467C7.73847 13.4163 6.54984 14.803 6.1041 15.5459C0.656188 25.055 0.879058 29.4381 0.978111 41.3244L0.953347 77.3797L14.9446 61.0607C17.0247 61.9027 18.6343 63.7104 23.785 65.4191C41.045 71.1641 59.246 61.8779 65.4615 44.1474C67.9131 37.1395 67.3931 27.8532 64.892 21.3653C57.4878 2.32236 35.5228 -5.72569 17.6685 4.40247C16.8513 4.87297 14.2017 6.8045 13.8055 6.82927H13.7807Z" fill="#D1AC42"/>
</svg>
