<svg width="122" height="104" viewBox="0 0 122 104" fill="none" xmlns="http://www.w3.org/2000/svg">
<path fill-rule="evenodd" clip-rule="evenodd" d="M50.0917 37.2632C49.844 38.9224 52.8404 41.5968 54.0042 42.4883C57.9664 45.5094 64.3058 45.4599 68.2926 42.5626C69.3327 41.8197 70.0013 41.2254 70.7194 40.3091C71.2147 39.69 72.4281 38.3528 72.3043 37.2632C71.71 36.9413 69.7041 36.768 68.8622 37.0651C68.2926 37.2632 67.9955 38.1052 66.9554 39.0214C63.4886 42.0921 57.793 41.7949 54.549 38.1795C54.2271 37.8328 54.029 37.3375 53.5833 37.1147C52.8651 36.768 50.6364 36.9413 50.0669 37.2632H50.0917Z" fill="#D1AC42"/>
<path fill-rule="evenodd" clip-rule="evenodd" d="M78.4703 59.2283L65.1972 52.8641C65.0487 52.7898 62.919 53.1613 60.8884 53.1365C48.8535 53.0127 39.7159 41.7949 42.0931 29.6114C44.4209 17.6756 57.2482 10.8657 67.8964 15.1992C80.9467 20.5233 84.5126 36.2975 75.1025 47.02L78.4951 59.2035L78.4703 59.2283ZM40.7807 6.82927C40.2854 7.62169 38.4034 9.10748 37.6605 9.82562C36.5709 10.8657 35.5557 12.4505 34.788 12.8467C34.7385 13.4163 33.5498 14.803 33.1041 15.5459C27.6562 25.055 27.8791 29.4381 27.9781 41.3244L27.9533 77.3797L41.9446 61.0607C44.0247 61.9027 45.6343 63.7104 50.785 65.4191C68.045 71.1641 86.246 61.8779 92.4615 44.1474C94.9131 37.1395 94.3931 27.8532 91.892 21.3653C84.4878 2.32236 62.5228 -5.72569 44.6685 4.40247C43.8513 4.87297 41.2017 6.8045 40.8055 6.82927H40.7807Z" fill="#D1AC42"/>
<path d="M10.1735 93.1289C10.1735 94.4166 9.75248 95.4567 8.91053 96.2243C8.06858 97.0167 6.80566 97.413 5.12176 97.413H2.10064V103.802H0.590088V88.8201H5.12176C6.80566 88.8201 8.04382 89.2163 8.91053 90.0087C9.75248 90.8012 10.1735 91.8412 10.1735 93.1289ZM5.12176 96.1253C7.47427 96.1253 8.63814 95.1347 8.63814 93.1289C8.63814 92.1384 8.36574 91.3707 7.79619 90.8507C7.2514 90.3307 6.33516 90.083 5.12176 90.083H2.10064V96.1253H5.12176ZM14.1851 94.169C14.507 93.4508 15.027 92.8813 15.6957 92.4851C16.3643 92.0889 17.2062 91.8908 18.1967 91.8908V93.4508H17.8005C16.7109 93.4508 15.8442 93.748 15.1756 94.3176C14.507 94.9119 14.1851 95.8776 14.1851 97.2644V103.802H12.6745V92.1136H14.1851V94.1937V94.169ZM31.0241 97.3387C31.0241 97.8587 30.9993 98.2549 30.9746 98.5273H21.2674C21.3169 99.4188 21.515 100.162 21.9112 100.806C22.3074 101.425 22.8027 101.92 23.4218 102.242C24.0409 102.564 24.7342 102.712 25.4771 102.712C26.4429 102.712 27.2601 102.465 27.9287 101.994C28.5973 101.524 29.043 100.88 29.2411 100.087H30.826C30.5288 101.226 29.9345 102.167 28.9935 102.886C28.0525 103.604 26.8886 103.975 25.4771 103.975C24.3875 103.975 23.397 103.728 22.5303 103.232C21.6636 102.737 20.9702 102.044 20.475 101.127C19.9797 100.211 19.7321 99.1712 19.7321 97.9578C19.7321 96.7444 19.9797 95.6795 20.4502 94.7633C20.9455 93.8471 21.6141 93.1537 22.4808 92.6584C23.3475 92.1631 24.338 91.9403 25.4524 91.9403C26.5667 91.9403 27.5325 92.1879 28.3744 92.6584C29.2164 93.1537 29.8602 93.7975 30.306 94.6147C30.7517 95.4319 30.9746 96.3481 30.9746 97.3387H31.0241ZM29.5135 97.2891C29.5383 96.4224 29.365 95.6795 28.9935 95.0604C28.6221 94.4414 28.1268 93.9709 27.5077 93.6737C26.8886 93.3518 26.1953 93.2032 25.4524 93.2032C24.338 93.2032 23.397 93.5499 22.6046 94.268C21.8122 94.9862 21.3912 96.0015 21.2921 97.2891H29.5135ZM33.0794 97.9082C33.0794 96.7196 33.3271 95.6548 33.7976 94.7385C34.2928 93.8223 34.9614 93.1289 35.8034 92.6337C36.6453 92.1384 37.6111 91.8908 38.6759 91.8908C39.716 91.8908 40.6322 92.1384 41.4494 92.6337C42.2666 93.1289 42.8857 93.7728 43.2819 94.59V87.9039H44.7924V103.752H43.2819V101.127C42.9352 101.945 42.3409 102.613 41.5237 103.133C40.7065 103.653 39.7407 103.926 38.6512 103.926C37.5863 103.926 36.6206 103.678 35.7786 103.183C34.9367 102.688 34.2681 101.969 33.7976 101.053C33.3271 100.137 33.0794 99.0721 33.0794 97.8835V97.9082ZM43.3067 97.933C43.3067 96.992 43.1085 96.15 42.7371 95.4567C42.3409 94.7385 41.8209 94.1937 41.1523 93.7975C40.4836 93.4013 39.7655 93.228 38.9483 93.228C38.1311 93.228 37.3882 93.4013 36.7196 93.7728C36.051 94.1442 35.5558 94.689 35.1596 95.3824C34.7881 96.1005 34.59 96.9177 34.59 97.9082C34.59 98.874 34.7881 99.7159 35.1596 100.434C35.531 101.152 36.051 101.697 36.7196 102.093C37.3882 102.465 38.1311 102.663 38.9483 102.663C39.7407 102.663 40.4836 102.465 41.1523 102.093C41.8209 101.697 42.3409 101.152 42.7371 100.434C43.1333 99.7159 43.3067 98.8988 43.3067 97.9578V97.933ZM48.9774 89.8849C48.6803 89.8849 48.4326 89.7859 48.2098 89.563C47.9869 89.3401 47.8879 89.0925 47.8879 88.7706C47.8879 88.4487 47.9869 88.201 48.2098 87.9782C48.4326 87.7801 48.6803 87.6562 48.9774 87.6562C49.2746 87.6562 49.547 87.7553 49.7451 87.9782C49.968 88.1763 50.067 88.4487 50.067 88.7706C50.067 89.0925 49.968 89.3401 49.7451 89.563C49.5222 89.7859 49.2746 89.8849 48.9774 89.8849ZM49.7203 92.0889V103.777H48.2098V92.0889H49.7203ZM52.4443 97.933C52.4443 96.7196 52.6919 95.6548 53.1624 94.7633C53.6577 93.8471 54.3263 93.1537 55.1682 92.6584C56.035 92.1631 57.0007 91.9155 58.1151 91.9155C59.5513 91.9155 60.74 92.2622 61.681 92.9803C62.622 93.6985 63.2163 94.6642 63.4887 95.9024H61.8791C61.681 95.0604 61.2352 94.3918 60.5914 93.9213C59.9228 93.4508 59.1056 93.2032 58.1151 93.2032C57.3226 93.2032 56.6293 93.3766 55.9854 93.748C55.3663 94.0947 54.8711 94.6395 54.4996 95.3328C54.1282 96.051 53.9548 96.9177 53.9548 97.933C53.9548 98.973 54.1282 99.8398 54.4996 100.558C54.8711 101.276 55.3663 101.796 55.9854 102.167C56.6045 102.514 57.3226 102.712 58.1151 102.712C59.1056 102.712 59.9228 102.465 60.5914 101.994C61.26 101.524 61.681 100.855 61.8791 99.9883H63.4887C63.2163 101.177 62.622 102.143 61.6562 102.886C60.7152 103.604 59.5266 103.975 58.0903 103.975C57.0007 103.975 56.0102 103.728 55.1435 103.232C54.2768 102.737 53.6082 102.044 53.1377 101.127C52.6424 100.211 52.4195 99.1712 52.4195 97.9578L52.4443 97.933ZM68.2185 93.3518V100.607C68.2185 101.326 68.3423 101.821 68.6147 102.093C68.8871 102.366 69.3576 102.489 70.0509 102.489H71.4129V103.777H69.8033C68.7385 103.777 67.9708 103.529 67.4508 103.034C66.9308 102.539 66.6831 101.722 66.6831 100.607V93.3518H65.0488V92.0889H66.6831V89.142H68.1937V92.0889H71.4129V93.3518H68.1937H68.2185ZM82.6059 96.0757C83.4726 96.2738 84.166 96.6948 84.7108 97.3634C85.2308 98.032 85.5032 98.8245 85.5032 99.6912C85.5032 100.954 85.0574 101.945 84.1907 102.688C83.324 103.43 82.0859 103.802 80.5258 103.802H73.5178V88.7706H80.2782C81.8135 88.7706 83.0021 89.1173 83.8688 89.8106C84.7355 90.504 85.1565 91.4698 85.1565 92.6584C85.1565 93.5499 84.9336 94.268 84.4631 94.8623C83.9926 95.4567 83.3736 95.8529 82.6059 96.0757ZM77.158 94.8376H79.56C80.1543 94.8376 80.6248 94.7138 80.9468 94.4414C81.2687 94.169 81.4173 93.7975 81.4173 93.2775C81.4173 92.7575 81.2687 92.3613 80.9468 92.0889C80.6248 91.8165 80.1543 91.6926 79.56 91.6926H77.158V94.8376ZM79.8572 100.83C80.4762 100.83 80.9468 100.682 81.2934 100.409C81.6401 100.137 81.7887 99.7159 81.7887 99.1959C81.7887 98.6759 81.6154 98.2549 81.2687 97.9578C80.922 97.6606 80.4267 97.512 79.8324 97.512H77.1827V100.83H79.8819H79.8572ZM98.8753 97.6111C98.8753 97.9577 98.8506 98.3044 98.801 98.6759H90.5054C90.5549 99.4188 90.8025 99.9883 91.2235 100.385C91.6445 100.781 92.1645 100.979 92.7836 100.979C93.6998 100.979 94.3437 100.583 94.6903 99.815H98.5782C98.3801 100.607 98.0086 101.301 97.4886 101.945C96.9686 102.564 96.3247 103.059 95.5323 103.43C94.7399 103.777 93.8732 103.975 92.9074 103.975C91.7435 103.975 90.7035 103.728 89.7872 103.232C88.871 102.737 88.1529 102.019 87.6328 101.078C87.1128 100.162 86.8652 99.0721 86.8652 97.8092C86.8652 96.571 87.1128 95.4814 87.6328 94.5404C88.1281 93.6242 88.8462 92.9061 89.7625 92.386C90.6787 91.8908 91.7188 91.6431 92.9074 91.6431C94.0713 91.6431 95.0866 91.8908 96.0028 92.3613C96.8943 92.8565 97.6124 93.5499 98.1077 94.4414C98.6029 95.3328 98.8753 96.3977 98.8753 97.5863V97.6111ZM95.1361 96.6453C95.1361 96.0262 94.9132 95.5062 94.4922 95.1347C94.0713 94.7633 93.5265 94.59 92.8826 94.59C92.2635 94.59 91.7435 94.7633 91.3225 95.1347C90.9016 95.4814 90.6292 96.0015 90.5301 96.6453H95.1113H95.1361ZM107.468 100.682V103.777H105.611C104.274 103.777 103.258 103.455 102.516 102.811C101.773 102.167 101.401 101.103 101.401 99.6417V94.8871H99.9401V91.8412H101.401V88.9192H105.066V91.8412H107.468V94.8871H105.066V99.6912C105.066 100.038 105.14 100.31 105.314 100.459C105.487 100.607 105.76 100.706 106.18 100.706H107.493L107.468 100.682ZM108.781 97.7844C108.781 96.5462 109.003 95.4814 109.474 94.5404C109.944 93.6242 110.564 92.9061 111.381 92.386C112.173 91.8908 113.065 91.6431 114.055 91.6431C114.897 91.6431 115.64 91.8165 116.284 92.1632C116.928 92.5098 117.398 92.9556 117.745 93.5251V91.8412H121.41V103.802H117.745V102.118C117.398 102.663 116.903 103.133 116.259 103.48C115.615 103.827 114.872 104 114.03 104C113.065 104 112.173 103.752 111.381 103.232C110.588 102.737 109.944 101.994 109.474 101.078C109.003 100.137 108.781 99.0721 108.781 97.8339V97.7844ZM117.745 97.8092C117.745 96.8929 117.497 96.1748 116.977 95.6548C116.482 95.1347 115.863 94.8623 115.12 94.8623C114.402 94.8623 113.783 95.1347 113.263 95.6548C112.768 96.1748 112.495 96.8929 112.495 97.8092C112.495 98.7254 112.743 99.4435 113.263 99.9883C113.758 100.533 114.377 100.781 115.12 100.781C115.838 100.781 116.457 100.508 116.977 99.9883C117.473 99.4683 117.745 98.7502 117.745 97.8339V97.8092Z" fill="#121212"/>
</svg>
