<svg width="64" height="64" viewBox="0 0 64 64" fill="none" xmlns="http://www.w3.org/2000/svg">
<path d="M11.4619 35.9729L11.1419 35.0041C11.0796 34.8174 10.9908 34.6396 10.8574 34.4796C10.7419 34.3463 10.5996 34.2307 10.4485 34.1418C10.2885 34.0618 10.1196 34.0174 9.94187 34.0085C9.7552 33.9996 9.55965 34.0263 9.38187 34.0885C9.20409 34.1418 9.0352 34.2396 8.88409 34.3552C8.74187 34.4707 8.62631 34.6129 8.54631 34.7729C8.45742 34.9329 8.41298 35.1107 8.3952 35.2885C8.37742 35.4841 8.41298 35.6885 8.4752 35.8752L9.08853 37.7241L13.2752 36.3374L12.9819 35.4574L11.4619 35.9729ZM9.52409 36.6218L9.23965 35.7863C9.15965 35.5374 9.15076 35.3329 9.23076 35.1818C9.31076 35.0307 9.44409 34.9152 9.61298 34.8707C9.77298 34.8085 9.95965 34.8174 10.1196 34.8885C10.2708 34.9596 10.3863 35.1196 10.4752 35.3774L10.7508 36.2129L9.52409 36.6218Z" fill="#051B30"/>
<path d="M12.0906 32.1157L10.375 32.2934L10.2773 31.3157C10.2506 31.049 10.2773 30.8712 10.3573 30.7646C10.4373 30.6579 10.5795 30.5957 10.7928 30.569L11.9217 30.4534L11.8328 29.5557L10.5884 29.689C10.3306 29.7157 10.1439 29.7779 10.0284 29.8668C9.89503 29.9823 9.81503 30.1423 9.78836 30.3112C9.69947 30.1157 9.54836 29.9557 9.35281 29.8668C9.14836 29.769 8.92614 29.7334 8.70392 29.7601C8.52614 29.7779 8.36614 29.8312 8.20614 29.9112C8.06392 29.9912 7.93058 30.0979 7.83281 30.2312C7.72614 30.3646 7.65503 30.5246 7.61058 30.6846C7.56614 30.8712 7.54836 31.0579 7.57503 31.2446L7.80614 33.4757L12.1973 33.0223L12.0906 32.1157ZM8.46392 32.4979L8.33947 31.3157C8.31281 31.0846 8.35725 30.9157 8.45503 30.809C8.5617 30.6934 8.70392 30.6223 8.86392 30.6134C9.01503 30.5957 9.17503 30.6312 9.29947 30.7201C9.42392 30.809 9.49503 30.9779 9.5217 31.2268L9.63725 32.3734L8.46392 32.4979Z" fill="#051B30"/>
<path d="M12.2087 25.8931L11.4265 25.8042L11.1509 28.2397L10.022 28.1153L10.2709 25.9642L9.49757 25.8842L9.25757 28.0264L8.31535 27.9197L8.58201 25.5908L7.80868 25.502L7.45312 28.7286L11.8353 29.2175L12.2087 25.8931Z" fill="#051B30"/>
<path d="M12.828 23.9911C12.9169 23.7422 12.9525 23.4666 12.9258 23.2C12.8991 22.9422 12.8191 22.7022 12.6858 22.48C12.5436 22.2489 12.3569 22.0444 12.1436 21.8844C11.8947 21.6978 11.6102 21.5555 11.3169 21.4578C11.0236 21.3511 10.7214 21.3066 10.4102 21.3066C10.1436 21.3155 9.87691 21.3778 9.62802 21.4844C9.38802 21.6 9.18358 21.76 9.01469 21.9555C8.83691 22.1689 8.69469 22.4178 8.6058 22.6844L8.05469 24.3022L12.2236 25.7333L12.828 23.9911ZM12.0636 23.9289L11.8147 24.6489L9.07691 23.7066L9.29913 23.0578C9.35247 22.88 9.44135 22.7022 9.55691 22.5511C9.6458 22.4266 9.77024 22.3289 9.91247 22.2666C10.0636 22.2044 10.2325 22.1866 10.3925 22.2044C10.6058 22.2311 10.8102 22.2755 11.0147 22.3466C11.4858 22.5066 11.8147 22.72 11.9925 22.9689C12.1614 23.2266 12.188 23.5466 12.0636 23.9289Z" fill="#051B30"/>
<path d="M10.2228 19.0752L9.78906 19.8916L13.6826 21.9603L14.1163 21.1439L10.2228 19.0752Z" fill="#051B30"/>
<path d="M15.7372 17.3787C15.6305 17.1564 15.4972 16.9609 15.3283 16.7831L14.7683 17.5209C14.9372 17.6987 15.0438 17.9298 15.0705 18.1787C15.0794 18.4187 15.0083 18.6587 14.8483 18.8364C14.635 19.1209 14.3594 19.2542 14.0394 19.2364C13.7194 19.2187 13.355 19.0587 12.9638 18.7564C12.5727 18.4542 12.3327 18.1609 12.2172 17.8498C12.1016 17.5387 12.1638 17.2276 12.395 16.9253C12.5283 16.7476 12.715 16.632 12.9194 16.5787C13.1505 16.5253 13.3905 16.5431 13.6038 16.6498L14.1638 15.912C13.9772 15.7964 13.7727 15.7164 13.5594 15.672C13.3461 15.6276 13.1327 15.6276 12.9194 15.672C12.6972 15.7164 12.4838 15.8053 12.2972 15.9298C12.0838 16.072 11.8972 16.2498 11.7461 16.4542C11.5683 16.6853 11.435 16.952 11.3638 17.2364C11.3016 17.5031 11.2927 17.7698 11.355 18.0364C11.4172 18.3209 11.5416 18.5876 11.7105 18.8187C11.915 19.0942 12.155 19.3342 12.4305 19.5387C12.6972 19.752 12.9994 19.912 13.3194 20.0187C13.5861 20.1076 13.8705 20.1342 14.155 20.1164C14.4216 20.0898 14.6705 20.0009 14.8927 19.8676C15.1238 19.7253 15.3283 19.5298 15.4972 19.3076C15.6483 19.1209 15.755 18.9076 15.8261 18.6764C15.8883 18.4631 15.915 18.2409 15.8972 18.0276C15.8883 17.7964 15.8261 17.5831 15.7372 17.3787Z" fill="#051B30"/>
<path d="M16.8126 12.7029L16.3148 12.1162L13.5859 14.454L14.0926 15.0318L15.097 14.1695L17.4704 16.9429L18.1637 16.3384L15.7993 13.574L16.8126 12.7029Z" fill="#051B30"/>
<path d="M23.4383 11.5306C23.3672 11.4417 23.2872 11.3617 23.1894 11.2995C23.1094 11.2461 23.0116 11.2017 22.9138 11.1839C22.816 11.1661 22.7183 11.1572 22.6205 11.1572C22.7449 11.0417 22.8249 10.8817 22.8605 10.7217C22.896 10.5439 22.8783 10.3572 22.8072 10.1972C22.6649 9.85058 22.4516 9.62835 22.1583 9.5128C21.8649 9.39724 21.5183 9.42391 21.1183 9.5928L19.1094 10.4195L20.7894 14.4995L22.6294 13.7439C23.1449 13.5306 23.4827 13.2639 23.6427 12.9439C23.8027 12.615 23.8027 12.2328 23.6516 11.9039C23.5983 11.7617 23.5272 11.6461 23.4383 11.5306ZM20.5849 11.6639L20.2205 10.775L21.2427 10.3484C21.4472 10.2684 21.5983 10.2417 21.7227 10.2772C21.856 10.3217 21.9538 10.4284 21.9983 10.5617C22.1227 10.855 22.0072 11.0772 21.6605 11.2195L20.5849 11.6639ZM22.7983 12.6595C22.7183 12.8284 22.576 12.9528 22.4072 13.015L21.3227 13.4595L20.8694 12.3572L21.9627 11.9039C22.1227 11.8328 22.2916 11.8061 22.4605 11.8417C22.6116 11.895 22.736 12.0106 22.7894 12.1706C22.8605 12.3306 22.8694 12.5084 22.7983 12.6595Z" fill="#051B30"/>
<path d="M25.0591 12.1687L24.8546 11.0487L26.988 10.6665L26.8457 9.90208L24.7213 10.2843L24.5613 9.35097L26.8635 8.94208L26.7302 8.18652L23.5391 8.75541L24.3124 13.0932L27.6102 12.5065L27.4679 11.7421L25.0591 12.1687Z" fill="#051B30"/>
<path d="M31.3667 8.22122L27.7845 8.08789L27.7578 8.86122L29.0823 8.90567L28.9578 12.5501L29.8734 12.5768L30.0067 8.94122L31.34 8.99456L31.3667 8.22122Z" fill="#051B30"/>
<path d="M33.6552 8.68404L32.6064 8.4707L30.1797 12.4796L31.1397 12.6751L31.6286 11.8485L33.2197 12.1774L33.3086 13.1285L34.2864 13.3329L33.6552 8.68404ZM32.0197 11.1463L32.9264 9.53737H32.9352L33.1219 11.3685L32.0197 11.1463Z" fill="#051B30"/>
<path d="M37.7625 38.8256C37.4158 39.1634 37.0514 39.4745 36.6691 39.7767L37.7358 41.7323C37.7714 41.8034 37.8069 41.8567 37.8336 41.8923C38.2158 41.6078 38.5891 41.3056 38.9447 40.9856C38.5447 40.2656 38.1536 39.5456 37.7625 38.8256ZM39.5847 18.8078C33.6203 12.8612 23.9669 12.8701 18.0114 18.8345C12.0558 24.7989 12.0736 34.4523 18.038 40.4078C19.7447 42.1145 21.8336 43.3856 24.1269 44.1234C24.5714 44.2656 25.0247 44.3901 25.478 44.4878C25.558 44.2656 25.7091 44.0789 25.9047 43.9456C26.1803 43.7501 26.5003 43.6167 26.838 43.5634C27.6203 43.4212 28.3936 43.4745 29.1669 43.5723C30.3847 43.7412 31.5847 43.9989 32.758 44.3367C33.2647 44.2034 33.7714 44.0345 34.2603 43.8478C33.878 43.1367 33.4869 42.4256 33.1047 41.7234C32.6514 41.8834 32.1891 42.0256 31.718 42.1323C31.3358 42.2212 30.9447 42.2923 30.5447 42.3456C29.1491 42.5323 27.7358 42.4967 26.358 42.2301C20.4203 41.0923 15.9225 35.8567 15.9225 29.5989C15.9225 22.5056 21.7003 16.7278 28.7936 16.7278C35.8869 16.7278 41.6647 22.4967 41.6647 29.5989C41.6647 31.5367 41.2291 33.4478 40.3847 35.1901C40.8558 36.0078 41.2914 36.8434 41.7447 37.6701C42.0469 37.1812 42.3314 36.6834 42.5714 36.1589C42.5003 36.0345 42.4291 35.9101 42.358 35.7856C41.8425 34.9501 41.9936 33.6078 43.0691 32.9589C43.2736 32.8434 43.4958 32.7545 43.7269 32.7189C43.8247 32.2389 43.9047 31.7501 43.958 31.2523C44.0203 30.7012 44.0469 30.1501 44.0469 29.5989C44.0647 25.5456 42.4558 21.6612 39.5847 18.8078Z" fill="#FF0D3B"/>
<path d="M37.0053 21.3863C32.4719 16.853 25.1208 16.853 20.5875 21.3863C16.0542 25.9197 16.0542 33.2708 20.5875 37.8041C22.7653 39.9819 25.7164 41.2085 28.8008 41.1997C29.5742 41.1997 30.3386 41.1197 31.0942 40.9774C31.5742 40.8797 32.0364 40.7552 32.4986 40.6041C32.1253 39.9197 31.7519 39.2352 31.3786 38.5597C30.9075 38.693 30.4186 38.7997 29.9297 38.853C29.5564 38.8974 29.1742 38.9241 28.7919 38.9241C23.6364 38.933 19.4497 34.7552 19.4408 29.5908C19.4319 24.4352 23.6097 20.2485 28.7742 20.2397C33.9297 20.2308 38.1164 24.4086 38.1253 29.573C38.1253 32.2663 36.9608 34.8352 34.9342 36.613C35.3075 37.2974 35.6808 37.9819 36.0542 38.6574C36.3831 38.3908 36.7031 38.1063 37.0053 37.8041C37.0497 37.7597 37.0942 37.7152 37.1297 37.6708L36.8897 37.2263C36.4542 36.4263 36.4897 35.6441 37.0231 34.8974C37.5653 34.133 38.6053 33.9374 39.4231 34.2752C39.6097 33.8485 39.7786 33.4041 39.9119 32.9597C40.2408 31.8663 40.4097 30.7285 40.4008 29.5908C40.4097 26.5152 39.1919 23.5641 37.0053 21.3863Z" fill="#FF0D3B"/>
<path d="M34.2813 24.1161C31.2502 21.085 26.3435 21.085 23.3124 24.1161C20.2813 27.1472 20.2813 32.0539 23.3124 35.085C24.7702 36.5428 26.7435 37.3606 28.7968 37.3517C28.9035 37.3517 29.0102 37.3517 29.1079 37.3428C29.6146 37.325 30.1124 37.2539 30.6102 37.1383C30.1924 36.3739 29.7835 35.6183 29.3657 34.8539C28.8146 34.9161 28.2546 34.8894 27.7124 34.7739C24.8502 34.1783 23.0191 31.3694 23.6235 28.5161C24.228 25.6628 27.028 23.8228 29.8813 24.4272C32.7435 25.0228 34.5746 27.8317 33.9702 30.685C33.9168 30.9428 33.8457 31.1917 33.7568 31.4317C33.5613 31.965 33.2768 32.4628 32.9124 32.9072C33.3302 33.6717 33.7391 34.4272 34.1568 35.1917L34.2724 35.0761C37.3124 32.0539 37.3124 27.1472 34.2813 24.1161C34.2902 24.1161 34.2902 24.1161 34.2813 24.1161Z" fill="#FF0D3B"/>
<path d="M32.4631 29.5996C32.4631 29.6351 32.4631 29.6796 32.4631 29.7151C32.4631 29.7507 32.4631 29.7685 32.4631 29.7951C32.4631 29.8218 32.4631 29.8574 32.4542 29.884C32.4453 29.9107 32.4542 29.9462 32.4453 29.9818C32.4364 30.0173 32.4453 30.0262 32.4364 30.044C32.4275 30.0618 32.4275 30.0974 32.4275 30.124C32.4275 30.1329 32.4275 30.1418 32.4275 30.1507C32.4275 30.1685 32.4186 30.1862 32.4186 30.204C32.4186 30.2218 32.4097 30.2485 32.4097 30.2662C32.4097 30.284 32.4008 30.3107 32.4008 30.3373C32.4008 30.3373 32.4008 30.3462 32.4008 30.3551C32.392 30.3818 32.392 30.4085 32.3831 30.444C32.3742 30.4796 32.3653 30.5062 32.3653 30.5329C32.3653 30.5596 32.3475 30.5951 32.3386 30.6218C32.3208 30.6929 32.3031 30.7551 32.2764 30.8174C32.2675 30.8618 32.2497 30.8974 32.232 30.9329C32.2231 30.9596 32.2142 30.9951 32.1964 31.0218L32.1875 31.0396C32.1697 31.0929 32.1431 31.1374 32.1164 31.1907C32.1075 31.2085 32.1075 31.2174 32.0986 31.2351C32.0897 31.2618 32.0808 31.2796 32.0631 31.3062L32.0542 31.3151C31.6897 30.6485 31.3253 29.9729 30.952 29.3062C30.3475 28.2396 28.7742 27.9996 27.8675 28.8262C27.1653 29.4662 26.9964 30.4974 27.4408 31.324C27.7875 31.964 28.1431 32.6129 28.4897 33.2529C27.7164 33.1907 26.9875 32.8885 26.4008 32.3818C24.8631 31.0574 24.6942 28.7462 26.0097 27.2085C27.3253 25.6707 29.6453 25.5018 31.1831 26.8174C31.8231 27.3685 32.2586 28.1329 32.4008 28.9685C32.4097 29.0218 32.4186 29.0751 32.4275 29.1285C32.4364 29.164 32.4364 29.2085 32.4364 29.244L32.4453 29.3151C32.4453 29.3418 32.4453 29.3773 32.4542 29.404C32.4542 29.4218 32.4542 29.4396 32.4542 29.4662C32.4631 29.5107 32.4631 29.5551 32.4631 29.5996Z" fill="#FF0D3B"/>
<path d="M43.1776 37.2615C42.9643 36.897 42.7776 36.5237 42.5732 36.1504C42.3243 36.6659 42.0487 37.1726 41.7465 37.6526C41.7909 37.7326 41.8354 37.8126 41.8709 37.8926C42.0398 38.1948 42.0398 38.1948 42.3243 38.0348C42.5643 37.9015 42.8043 37.7592 43.0443 37.6437C43.2576 37.5548 43.2932 37.457 43.1776 37.2615ZM38.9998 41.0926C38.9821 41.057 38.9643 41.0215 38.9465 40.9859C38.5554 40.2659 38.1554 39.5459 37.7643 38.817C37.5509 38.4348 37.3465 38.0526 37.1421 37.6704C37.0976 37.7148 37.0532 37.7592 37.0087 37.8037C36.7065 38.1059 36.3954 38.3904 36.0576 38.657C36.2621 39.0304 36.4665 39.4037 36.6709 39.777C37.0265 40.4259 37.3821 41.0837 37.7376 41.7326C37.7732 41.8037 37.8087 41.857 37.8354 41.8926C37.9243 42.0259 37.9776 41.9904 38.2176 41.8659C38.4576 41.7415 38.6709 41.617 38.9021 41.4926C39.1421 41.3592 39.1421 41.3504 38.9998 41.0926ZM43.1776 37.2615C42.9643 36.897 42.7776 36.5237 42.5732 36.1504C42.3243 36.6659 42.0487 37.1726 41.7465 37.6526C41.7909 37.7326 41.8354 37.8126 41.8709 37.8926C42.0398 38.1948 42.0398 38.1948 42.3243 38.0348C42.5643 37.9015 42.8043 37.7592 43.0443 37.6437C43.2576 37.5548 43.2932 37.457 43.1776 37.2615ZM38.9998 41.0926C38.9821 41.057 38.9643 41.0215 38.9465 40.9859C38.5554 40.2659 38.1554 39.5459 37.7643 38.817C37.5509 38.4348 37.3465 38.0526 37.1421 37.6704C37.0976 37.7148 37.0532 37.7592 37.0087 37.8037C36.7065 38.1059 36.3954 38.3904 36.0576 38.657C36.2621 39.0304 36.4665 39.4037 36.6709 39.777C37.0265 40.4259 37.3821 41.0837 37.7376 41.7326C37.7732 41.8037 37.8087 41.857 37.8354 41.8926C37.9243 42.0259 37.9776 41.9904 38.2176 41.8659C38.4576 41.7415 38.6709 41.617 38.9021 41.4926C39.1421 41.3592 39.1421 41.3504 38.9998 41.0926ZM43.1776 37.2615C42.9643 36.897 42.7776 36.5237 42.5732 36.1504C42.3243 36.6659 42.0487 37.1726 41.7465 37.6526C41.7909 37.7326 41.8354 37.8126 41.8709 37.8926C42.0398 38.1948 42.0398 38.1948 42.3243 38.0348C42.5643 37.9015 42.8043 37.7592 43.0443 37.6437C43.2576 37.5548 43.2932 37.457 43.1776 37.2615ZM40.8843 33.3059C40.8221 33.4304 40.7865 33.5015 40.6265 33.3859C40.4043 33.217 40.1643 33.0748 39.9065 32.9681C39.1509 32.6392 38.3065 32.6037 37.5243 32.8615C36.7332 33.1192 36.0576 33.6615 35.6398 34.3815C35.6043 34.4437 35.5954 34.5592 35.5065 34.5592C35.4176 34.5592 35.3998 34.4348 35.3554 34.3637L35.1687 34.017C34.6976 33.1548 34.2265 32.2926 33.7554 31.4304C33.5332 31.0304 33.3198 30.6304 33.0976 30.2392C32.8665 29.8215 32.6443 29.3859 32.4043 28.9681C32.4132 29.0215 32.4221 29.0748 32.4309 29.1281C32.4398 29.1637 32.4398 29.2081 32.4398 29.2437L32.4487 29.3148C32.4487 29.3415 32.4487 29.377 32.4576 29.4037C32.4576 29.4215 32.4576 29.4392 32.4576 29.4659C32.4576 29.4926 32.4576 29.5015 32.4576 29.5104V29.5992C32.4576 29.6348 32.4576 29.6792 32.4576 29.7148C32.4576 29.7504 32.4576 29.7681 32.4576 29.7948C32.4576 29.8215 32.4576 29.857 32.4487 29.8837C32.4487 29.9015 32.4487 29.9281 32.4487 29.9459C32.4487 29.9548 32.4487 29.9637 32.4487 29.9815C32.4487 29.9992 32.4487 30.0259 32.4398 30.0437C32.4309 30.0615 32.4309 30.097 32.4309 30.1237C32.4309 30.1326 32.4309 30.1415 32.4309 30.1504C32.4309 30.1681 32.4221 30.1859 32.4221 30.2037C32.4221 30.2215 32.4132 30.2481 32.4132 30.2659C32.4132 30.2837 32.4043 30.3104 32.4043 30.337C32.4043 30.337 32.4043 30.3459 32.4043 30.3548C32.3954 30.3815 32.3954 30.4081 32.3865 30.4437C32.3776 30.4792 32.3687 30.5059 32.3687 30.5326L32.3598 30.5592C32.3509 30.577 32.3509 30.5948 32.3421 30.6215C32.3243 30.6926 32.3065 30.7548 32.2798 30.817C32.2709 30.8615 32.2532 30.897 32.2354 30.9326C32.2265 30.9592 32.2176 30.9948 32.1998 31.0215L32.1909 31.0392C32.1821 31.0659 32.1643 31.0926 32.1554 31.1192C32.1465 31.1459 32.1376 31.1637 32.1198 31.1904C32.1021 31.217 32.1109 31.217 32.1021 31.2348C32.0932 31.2615 32.0843 31.2792 32.0665 31.3059L32.0576 31.3148C32.1732 31.5192 32.2798 31.7237 32.3954 31.937C32.5732 32.2659 32.7509 32.5948 32.9287 32.9148L34.1732 35.1992L34.9465 36.6126C35.3198 37.297 35.6932 37.9815 36.0665 38.6659C36.2709 39.0392 36.4754 39.4126 36.6798 39.7859C37.0354 40.4348 37.3909 41.0926 37.7465 41.7415C37.7821 41.8126 37.8176 41.8659 37.8443 41.9015C37.9332 42.0348 37.9865 41.9992 38.2265 41.8748C38.4665 41.7504 38.6798 41.6259 38.9109 41.5015C39.1598 41.3681 39.1598 41.3592 39.0176 41.1015C38.9998 41.0659 38.9821 41.0304 38.9643 40.9948C38.5732 40.2748 38.1732 39.5548 37.7821 38.8259C37.5687 38.4437 37.3643 38.0615 37.1598 37.6792L36.9198 37.2348C36.4843 36.4348 36.5198 35.6526 37.0532 34.9059C37.6043 34.1415 38.6354 33.9459 39.4532 34.2837C39.8265 34.4348 40.1376 34.7015 40.3421 35.0481C40.3687 35.0926 40.3954 35.137 40.4221 35.1815C40.8132 34.3726 41.1243 33.5192 41.3376 32.6481C41.1421 32.8526 41.0087 33.0748 40.8843 33.3059ZM43.1776 37.2615C42.9643 36.897 42.7776 36.5237 42.5732 36.1504C42.3243 36.6659 42.0487 37.1726 41.7465 37.6526C41.7909 37.7326 41.8354 37.8126 41.8709 37.8926C42.0398 38.1948 42.0398 38.1948 42.3243 38.0348C42.5643 37.9015 42.8043 37.7592 43.0443 37.6437C43.2576 37.5548 43.2932 37.457 43.1776 37.2615ZM40.8843 33.3059C40.8221 33.4304 40.7865 33.5015 40.6265 33.3859C40.4043 33.217 40.1643 33.0748 39.9065 32.9681C39.1509 32.6392 38.3065 32.6037 37.5243 32.8615C36.7332 33.1192 36.0576 33.6615 35.6398 34.3815C35.6043 34.4437 35.5954 34.5592 35.5065 34.5592C35.4176 34.5592 35.3998 34.4348 35.3554 34.3637L35.1687 34.017C34.6976 33.1548 34.2265 32.2926 33.7554 31.4304C33.5332 31.0304 33.3198 30.6304 33.0976 30.2392C32.8665 29.8215 32.6443 29.3859 32.4043 28.9681C32.3065 28.7904 32.1998 28.6126 32.0932 28.4437C31.0709 26.8526 28.9465 26.3904 27.3554 27.4126C27.1421 27.5459 26.9465 27.7059 26.7687 27.8837C25.6487 28.9948 25.4265 30.6037 26.1821 31.9992C26.2532 32.1326 26.3243 32.257 26.3954 32.3815C26.8309 33.1815 27.2665 33.9726 27.7021 34.7726C28.1643 35.6259 28.6354 36.4881 29.1065 37.3415C29.3821 37.8392 29.6576 38.3459 29.9332 38.8437C30.4221 38.7815 30.9109 38.6837 31.3821 38.5504C31.2665 38.3459 31.1598 38.1504 31.0532 37.9459C30.9021 37.6792 30.7598 37.4037 30.6087 37.137C30.1909 36.3726 29.7821 35.617 29.3643 34.8526C29.0709 34.3192 28.7865 33.7859 28.4932 33.2526C28.1376 32.6126 27.7909 31.9637 27.4443 31.3237C26.9909 30.4881 27.1687 29.457 27.8709 28.8259C28.7776 27.9904 30.3509 28.2304 30.9554 29.3059C31.3287 29.9726 31.6932 30.6392 32.0576 31.3148C32.1732 31.5192 32.2798 31.7237 32.3954 31.937C32.5732 32.2659 32.7509 32.5948 32.9287 32.9148L34.1732 35.1992L34.9465 36.6126C35.3198 37.297 35.6932 37.9815 36.0665 38.6659C36.2709 39.0392 36.4754 39.4126 36.6798 39.7859C37.0354 40.4348 37.3909 41.0926 37.7465 41.7415C37.7821 41.8126 37.8176 41.8659 37.8443 41.9015C37.9332 42.0348 37.9865 41.9992 38.2265 41.8748C38.4665 41.7504 38.6798 41.6259 38.9109 41.5015C39.1598 41.3681 39.1598 41.3592 39.0176 41.1015C38.9998 41.0659 38.9821 41.0304 38.9643 40.9948C38.5732 40.2748 38.1732 39.5548 37.7821 38.8259C37.5687 38.4437 37.3643 38.0615 37.1598 37.6792L36.9198 37.2348C36.4843 36.4348 36.5198 35.6526 37.0532 34.9059C37.6043 34.1415 38.6354 33.9459 39.4532 34.2837C39.8265 34.4348 40.1376 34.7015 40.3421 35.0481C40.3687 35.0926 40.3954 35.137 40.4221 35.1815C40.8132 34.3726 41.1243 33.5192 41.3376 32.6481C41.1421 32.8526 41.0087 33.0748 40.8843 33.3059ZM57.2132 40.0881C55.9065 37.6881 54.5998 35.2881 53.2843 32.8881C53.1509 32.6481 52.9998 32.417 52.8132 32.2126C51.6665 30.8881 49.7021 30.6481 48.2621 31.6526C47.7643 31.9992 47.3643 32.4615 47.0976 33.0037C47.0621 32.9504 47.0443 32.9326 47.0265 32.9059C46.4221 31.937 45.5509 31.377 44.4132 31.2615C44.2621 31.2437 44.1109 31.2437 43.9598 31.2526C42.9109 31.297 41.9332 31.8126 41.3021 32.6481C41.1421 32.8526 40.9998 33.0748 40.8843 33.3059C40.8221 33.4304 40.7865 33.5015 40.6265 33.3859C40.4043 33.217 40.1643 33.0748 39.9065 32.9681C39.1509 32.6392 38.3065 32.6037 37.5243 32.8615C36.7332 33.1192 36.0576 33.6615 35.6398 34.3815C35.6043 34.4437 35.5954 34.5592 35.5065 34.5592C35.4176 34.5592 35.3998 34.4348 35.3554 34.3637L35.1687 34.017C34.6976 33.1548 34.2265 32.2926 33.7554 31.4304C33.5332 31.0304 33.3198 30.6304 33.0976 30.2392C32.8665 29.8215 32.6443 29.3859 32.4043 28.9681C32.3065 28.7904 32.1998 28.6126 32.0932 28.4437C31.0709 26.8526 28.9465 26.3904 27.3554 27.4126C27.1421 27.5459 26.9465 27.7059 26.7687 27.8837C25.6487 28.9948 25.4265 30.6037 26.1821 31.9992C26.2532 32.1326 26.3243 32.257 26.3954 32.3815C26.8309 33.1815 27.2665 33.9726 27.7021 34.7726C28.1643 35.6259 28.6354 36.4881 29.1065 37.3415C29.3821 37.8392 29.6576 38.3459 29.9332 38.8437L31.0887 40.977L31.7198 42.1326C31.7643 42.2215 31.8176 42.3015 31.8621 42.3904C31.9065 42.4792 31.9421 42.5326 31.9954 42.6392C31.9065 42.6215 31.8621 42.6215 31.8176 42.6126C31.3909 42.5148 30.9643 42.4259 30.5376 42.3459C29.9598 42.4259 29.3732 42.4704 28.7865 42.4704C27.9687 42.4704 27.1509 42.3904 26.3509 42.2392C25.5687 42.417 24.8843 42.7726 24.4132 43.4926C24.2798 43.6881 24.1821 43.9015 24.1109 44.1326C23.8887 44.8526 24.0043 45.6437 24.4221 46.2748C24.8754 46.9681 25.4976 47.4837 26.1554 47.9548C27.5509 48.9504 29.0709 49.7237 30.5821 50.5148C32.8843 51.7237 35.2043 52.9148 37.4087 54.2926C38.7598 55.137 40.1109 55.9637 41.6132 56.5326C44.9554 57.7859 48.2709 57.857 51.5598 56.3992C53.0532 55.7504 54.4043 54.7992 55.5154 53.6081C58.9198 49.9281 59.6043 44.4881 57.2132 40.0881ZM53.6487 53.3948C52.7509 54.2304 51.6932 54.817 50.5554 55.2792C49.3554 55.777 48.0843 56.0526 46.7865 56.0792C45.3287 56.1148 43.9332 55.8126 42.5643 55.3415C40.8309 54.737 39.2665 53.8037 37.6932 52.8792C35.4354 51.5548 33.1243 50.3281 30.8309 49.0748C29.5065 48.3548 28.1643 47.6526 26.9198 46.7815C26.4843 46.497 26.0932 46.1504 25.7554 45.7504C25.4265 45.3504 25.3376 44.8792 25.4798 44.4792C25.5598 44.257 25.7109 44.0615 25.9065 43.937C26.1909 43.7415 26.5021 43.617 26.8398 43.5548C27.6221 43.4126 28.3954 43.4659 29.1687 43.5637C30.3865 43.7326 31.5865 43.9904 32.7598 44.3281C33.3287 44.4881 33.8887 44.657 34.4487 44.8259C34.5554 44.8615 34.7065 44.977 34.7865 44.8704C34.8487 44.7904 34.7154 44.6659 34.6621 44.5681L34.2621 43.8392C33.8798 43.1281 33.4887 42.417 33.1065 41.7148C32.9021 41.3415 32.6976 40.9681 32.4932 40.5948C32.1198 39.9104 31.7465 39.2348 31.3821 38.5504C31.2665 38.3459 31.1598 38.1504 31.0532 37.9459C30.9021 37.6792 30.7598 37.4037 30.6087 37.137C30.1909 36.3726 29.7821 35.617 29.3643 34.8526C29.0709 34.3192 28.7865 33.7859 28.4932 33.2526C28.1376 32.6126 27.7909 31.9637 27.4443 31.3237C26.9909 30.4881 27.1687 29.457 27.8709 28.8259C28.7776 27.9904 30.3509 28.2304 30.9554 29.3059C31.3287 29.9726 31.6932 30.6392 32.0576 31.3148C32.1732 31.5192 32.2798 31.7237 32.3954 31.937C32.5732 32.2659 32.7509 32.5948 32.9287 32.9148L34.1732 35.1992L34.9554 36.6126C35.3287 37.297 35.7021 37.9815 36.0754 38.6659C36.2798 39.0392 36.4843 39.4126 36.6887 39.7859C37.0443 40.4348 37.3998 41.0926 37.7554 41.7415C37.7909 41.8126 37.8265 41.8659 37.8532 41.9015C37.9421 42.0348 37.9954 41.9992 38.2354 41.8748C38.4754 41.7504 38.6887 41.6259 38.9198 41.5015C39.1687 41.3681 39.1687 41.3592 39.0265 41.1015C39.0087 41.0659 38.9909 41.0304 38.9732 40.9948C38.5821 40.2748 38.1821 39.5548 37.7909 38.8259C37.5776 38.4437 37.3732 38.0615 37.1687 37.6792L36.9287 37.2348C36.4932 36.4348 36.5287 35.6526 37.0621 34.9059C37.6132 34.1415 38.6443 33.9459 39.4621 34.2837C39.8354 34.4348 40.1465 34.7015 40.3509 35.0481C40.3776 35.0926 40.4043 35.137 40.4309 35.1815C40.9021 35.9992 41.3376 36.8348 41.7909 37.6615C41.8354 37.7415 41.8798 37.8215 41.9154 37.9015C42.0843 38.2037 42.0843 38.2037 42.3687 38.0437C42.6087 37.9104 42.8487 37.7681 43.0887 37.6526C43.2843 37.5637 43.3198 37.457 43.2132 37.2615C42.9998 36.897 42.8132 36.5237 42.6087 36.1504C42.5376 36.0259 42.4665 35.9015 42.3954 35.777C41.8798 34.9415 42.0309 33.5904 43.1065 32.9504C43.3109 32.8259 43.5332 32.7459 43.7643 32.7104C44.4843 32.5948 45.2132 32.8704 45.6843 33.4215C45.7821 33.5459 45.871 33.6792 45.951 33.8126C46.4398 34.7104 46.9287 35.6081 47.4176 36.497C47.5687 36.7637 47.5687 36.7637 47.8443 36.6215C48.0932 36.4881 48.3509 36.337 48.6087 36.2126C48.7687 36.1326 48.7865 36.0348 48.6976 35.8837C48.5821 35.6881 48.4754 35.4926 48.3954 35.2792C48.0398 34.3726 48.3687 33.2792 49.1332 32.7992C49.9865 32.2481 51.1154 32.3992 51.7909 33.1637C51.8798 33.2704 51.9598 33.3859 52.0221 33.5015C53.4087 36.0437 54.8132 38.5859 56.1732 41.1459C56.7954 42.3192 57.0798 43.5992 57.1332 44.9148C57.2132 48.2659 56.1109 51.1104 53.6487 53.3948ZM40.8843 33.3059C40.8221 33.4304 40.7865 33.5015 40.6265 33.3859C40.4043 33.217 40.1643 33.0837 39.9065 32.9681C39.1509 32.6392 38.3065 32.6037 37.5243 32.8615C36.7332 33.1192 36.0576 33.6615 35.6398 34.3815C35.6043 34.4437 35.5954 34.5592 35.5065 34.5592C35.4176 34.5592 35.3998 34.4348 35.3554 34.3637L35.1687 34.017C34.6976 33.1548 34.2265 32.2926 33.7554 31.4304C33.5332 31.0304 33.3198 30.6304 33.0976 30.2392C32.8665 29.8215 32.6443 29.3859 32.4043 28.9681C32.3065 28.7904 32.1998 28.6126 32.0932 28.4437C31.0709 26.8526 28.9465 26.3904 27.3554 27.4126C27.1421 27.5459 26.9465 27.7059 26.7687 27.8837C25.6487 28.9948 25.4265 30.6037 26.1821 31.9992C26.2532 32.1326 26.3243 32.257 26.3954 32.3815C26.8309 33.1815 27.2665 33.9726 27.7021 34.7726C28.1643 35.6259 28.6354 36.4881 29.1065 37.3415C29.3821 37.8392 29.6576 38.3459 29.9332 38.8437C30.4221 38.7815 30.9109 38.6837 31.3821 38.5504C31.2665 38.3459 31.1598 38.1504 31.0532 37.9459C30.9021 37.6792 30.7598 37.4037 30.6087 37.137C30.1909 36.3726 29.7821 35.617 29.3643 34.8526C29.0709 34.3192 28.7865 33.7859 28.4932 33.2526C28.1376 32.6126 27.7909 31.9637 27.4443 31.3237C26.9909 30.4881 27.1687 29.457 27.8709 28.8259C28.7776 27.9904 30.3509 28.2304 30.9554 29.3059C31.3287 29.9726 31.6932 30.6392 32.0576 31.3148C32.1732 31.5192 32.2798 31.7237 32.3954 31.937C32.5732 32.2659 32.7509 32.5948 32.9287 32.9148L34.1732 35.1992L34.9465 36.6126C35.3198 37.297 35.6932 37.9815 36.0665 38.6659C36.2709 39.0392 36.4754 39.4126 36.6798 39.7859C37.0354 40.4348 37.3909 41.0926 37.7465 41.7415C37.7821 41.8126 37.8176 41.8659 37.8443 41.9015C37.9332 42.0348 37.9865 41.9992 38.2265 41.8748C38.4665 41.7504 38.6798 41.6259 38.9109 41.5015C39.1598 41.3681 39.1598 41.3592 39.0176 41.1015C38.9998 41.0659 38.9821 41.0304 38.9643 40.9948C38.5732 40.2748 38.1732 39.5548 37.7821 38.8259C37.5687 38.4437 37.3643 38.0615 37.1598 37.6792L36.9198 37.2348C36.4843 36.4348 36.5198 35.6526 37.0532 34.9059C37.6043 34.1415 38.6354 33.9459 39.4532 34.2837C39.8265 34.4348 40.1376 34.7015 40.3421 35.0481C40.3687 35.0926 40.3954 35.137 40.4221 35.1815C40.8132 34.3726 41.1243 33.5192 41.3376 32.6481C41.1421 32.8526 41.0087 33.0748 40.8843 33.3059ZM43.1776 37.2615C42.9643 36.897 42.7776 36.5237 42.5732 36.1504C42.3243 36.6659 42.0487 37.1726 41.7465 37.6526C41.7909 37.7326 41.8354 37.8126 41.8709 37.8926C42.0398 38.1948 42.0398 38.1948 42.3243 38.0348C42.5643 37.9015 42.8043 37.7592 43.0443 37.6437C43.2576 37.5548 43.2932 37.457 43.1776 37.2615ZM40.8843 33.3059C40.8221 33.4304 40.7865 33.5015 40.6265 33.3859C40.4043 33.217 40.1643 33.0837 39.9065 32.9681C39.1509 32.6392 38.3065 32.6037 37.5243 32.8615C36.7332 33.1192 36.0576 33.6615 35.6398 34.3815C35.6043 34.4437 35.5954 34.5592 35.5065 34.5592C35.4176 34.5592 35.3998 34.4348 35.3554 34.3637L35.1687 34.017C34.6976 33.1548 34.2265 32.2926 33.7554 31.4304C33.5332 31.0304 33.3198 30.6304 33.0976 30.2392C32.8665 29.8215 32.6443 29.3859 32.4043 28.9681C32.4132 29.0215 32.4221 29.0748 32.4309 29.1281C32.4398 29.1637 32.4398 29.2081 32.4398 29.2437L32.4487 29.3148C32.4487 29.3415 32.4487 29.377 32.4576 29.4037C32.4576 29.4215 32.4576 29.4392 32.4576 29.4659C32.4576 29.4926 32.4576 29.5015 32.4576 29.5104V29.5992C32.4576 29.6348 32.4576 29.6792 32.4576 29.7148C32.4576 29.7504 32.4576 29.7681 32.4576 29.7948C32.4576 29.8215 32.4576 29.857 32.4487 29.8837C32.4487 29.9015 32.4487 29.9281 32.4487 29.9459C32.4487 29.9548 32.4487 29.9637 32.4487 29.9815C32.4487 29.9992 32.4487 30.0259 32.4398 30.0437C32.4309 30.0615 32.4309 30.097 32.4309 30.1237C32.4309 30.1326 32.4309 30.1415 32.4309 30.1504C32.4309 30.1681 32.4221 30.1859 32.4221 30.2037C32.4221 30.2215 32.4132 30.2481 32.4132 30.2659C32.4132 30.2837 32.4043 30.3104 32.4043 30.337C32.4043 30.337 32.4043 30.3459 32.4043 30.3548C32.3954 30.3815 32.3954 30.4081 32.3865 30.4437C32.3776 30.4792 32.3687 30.5059 32.3687 30.5326L32.3598 30.5592C32.3509 30.577 32.3509 30.5948 32.3421 30.6215C32.3243 30.6926 32.3065 30.7548 32.2798 30.817C32.2709 30.8615 32.2532 30.897 32.2354 30.9326C32.2265 30.9592 32.2176 30.9948 32.1998 31.0215L32.1909 31.0392C32.1821 31.0659 32.1643 31.0926 32.1554 31.1192C32.1465 31.1459 32.1376 31.1637 32.1198 31.1904C32.1021 31.217 32.1109 31.217 32.1021 31.2348C32.0932 31.2615 32.0843 31.2792 32.0665 31.3059L32.0576 31.3148C32.1732 31.5192 32.2798 31.7237 32.3954 31.937C32.5732 32.2659 32.7509 32.5948 32.9287 32.9148L34.1732 35.1992L34.9465 36.6126C35.3198 37.297 35.6932 37.9815 36.0665 38.6659C36.2709 39.0392 36.4754 39.4126 36.6798 39.7859C37.0354 40.4348 37.3909 41.0926 37.7465 41.7415C37.7821 41.8126 37.8176 41.8659 37.8443 41.9015C37.9332 42.0348 37.9865 41.9992 38.2265 41.8748C38.4665 41.7504 38.6798 41.6259 38.9109 41.5015C39.1598 41.3681 39.1598 41.3592 39.0176 41.1015C38.9998 41.0659 38.9821 41.0304 38.9643 40.9948C38.5732 40.2748 38.1732 39.5548 37.7821 38.8259C37.5687 38.4437 37.3643 38.0615 37.1598 37.6792L36.9198 37.2348C36.4843 36.4348 36.5198 35.6526 37.0532 34.9059C37.6043 34.1415 38.6354 33.9459 39.4532 34.2837C39.8265 34.4348 40.1376 34.7015 40.3421 35.0481C40.3687 35.0926 40.3954 35.137 40.4221 35.1815C40.8132 34.3726 41.1243 33.5192 41.3376 32.6481C41.1421 32.8526 41.0087 33.0748 40.8843 33.3059ZM43.1776 37.2615C42.9643 36.897 42.7776 36.5237 42.5732 36.1504C42.3243 36.6659 42.0487 37.1726 41.7465 37.6526C41.7909 37.7326 41.8354 37.8126 41.8709 37.8926C42.0398 38.1948 42.0398 38.1948 42.3243 38.0348C42.5643 37.9015 42.8043 37.7592 43.0443 37.6437C43.2576 37.5548 43.2932 37.457 43.1776 37.2615ZM40.8843 33.3059C40.8221 33.4304 40.7865 33.5015 40.6265 33.3859C40.4043 33.217 40.1643 33.0837 39.9065 32.9681C39.1509 32.6392 38.3065 32.6037 37.5243 32.8615C36.7332 33.1192 36.0576 33.6615 35.6398 34.3815C35.6043 34.4437 35.5954 34.5592 35.5065 34.5592C35.4176 34.5592 35.3998 34.4348 35.3554 34.3637L35.1687 34.017C34.6976 33.1548 34.2265 32.2926 33.7554 31.4304C33.5332 31.0304 33.3198 30.6304 33.0976 30.2392C32.8665 29.8215 32.6443 29.3859 32.4043 28.9681C32.4132 29.0215 32.4221 29.0748 32.4309 29.1281C32.4398 29.1637 32.4398 29.2081 32.4398 29.2437L32.4487 29.3148C32.4487 29.3415 32.4487 29.377 32.4576 29.4037C32.4576 29.4215 32.4576 29.4392 32.4576 29.4659C32.4576 29.4926 32.4576 29.5015 32.4576 29.5104V29.5992C32.4576 29.6348 32.4576 29.6792 32.4576 29.7148C32.4576 29.7504 32.4576 29.7681 32.4576 29.7948C32.4576 29.8215 32.4576 29.857 32.4487 29.8837C32.4487 29.9015 32.4487 29.9281 32.4487 29.9459C32.4487 29.9548 32.4487 29.9637 32.4487 29.9815C32.4487 29.9992 32.4487 30.0259 32.4398 30.0437C32.4309 30.0615 32.4309 30.097 32.4309 30.1237C32.4309 30.1326 32.4309 30.1415 32.4309 30.1504C32.4309 30.1681 32.4221 30.1859 32.4221 30.2037C32.4221 30.2215 32.4132 30.2481 32.4132 30.2659C32.4132 30.2837 32.4043 30.3104 32.4043 30.337C32.4043 30.337 32.4043 30.3459 32.4043 30.3548C32.3954 30.3815 32.3954 30.4081 32.3865 30.4437C32.3776 30.4792 32.3687 30.5059 32.3687 30.5326L32.3598 30.5592C32.3509 30.577 32.3509 30.5948 32.3421 30.6215C32.3243 30.6926 32.3065 30.7548 32.2798 30.817C32.2709 30.8615 32.2532 30.897 32.2354 30.9326C32.2265 30.9592 32.2176 30.9948 32.1998 31.0215L32.1909 31.0392C32.1821 31.0659 32.1643 31.0926 32.1554 31.1192C32.1465 31.1459 32.1376 31.1637 32.1198 31.1904C32.1021 31.217 32.1109 31.217 32.1021 31.2348C32.0932 31.2615 32.0843 31.2792 32.0665 31.3059L32.0576 31.3148C32.1732 31.5192 32.2798 31.7237 32.3954 31.937C32.5732 32.2659 32.7509 32.5948 32.9287 32.9148L34.1732 35.1992L34.9465 36.6126C35.3198 37.297 35.6932 37.9815 36.0665 38.6659C36.2709 39.0392 36.4754 39.4126 36.6798 39.7859C37.0354 40.4348 37.3909 41.0926 37.7465 41.7415C37.7821 41.8126 37.8176 41.8659 37.8443 41.9015C37.9332 42.0348 37.9865 41.9992 38.2265 41.8748C38.4665 41.7504 38.6798 41.6259 38.9109 41.5015C39.1598 41.3681 39.1598 41.3592 39.0176 41.1015C38.9998 41.0659 38.9821 41.0304 38.9643 40.9948C38.5732 40.2748 38.1732 39.5548 37.7821 38.8259C37.5687 38.4437 37.3643 38.0615 37.1598 37.6792L36.9198 37.2348C36.4843 36.4348 36.5198 35.6526 37.0532 34.9059C37.6043 34.1415 38.6354 33.9459 39.4532 34.2837C39.8265 34.4348 40.1376 34.7015 40.3421 35.0481C40.3687 35.0926 40.3954 35.137 40.4221 35.1815C40.8132 34.3726 41.1243 33.5192 41.3376 32.6481C41.1421 32.8526 41.0087 33.0748 40.8843 33.3059ZM43.1776 37.2615C42.9643 36.897 42.7776 36.5237 42.5732 36.1504C42.3243 36.6659 42.0487 37.1726 41.7465 37.6526C41.7909 37.7326 41.8354 37.8126 41.8709 37.8926C42.0398 38.1948 42.0398 38.1948 42.3243 38.0348C42.5643 37.9015 42.8043 37.7592 43.0443 37.6437C43.2576 37.5548 43.2932 37.457 43.1776 37.2615ZM38.9998 41.0926C38.9821 41.057 38.9643 41.0215 38.9465 40.9859C38.5554 40.2659 38.1554 39.5459 37.7643 38.817C37.5509 38.4348 37.3465 38.0526 37.1421 37.6704C37.0976 37.7148 37.0532 37.7592 37.0087 37.8037C36.7065 38.1059 36.3954 38.3904 36.0576 38.657C36.2621 39.0304 36.4665 39.4037 36.6709 39.777C37.0265 40.4259 37.3821 41.0837 37.7376 41.7326C37.7732 41.8037 37.8087 41.857 37.8354 41.8926C37.9243 42.0259 37.9776 41.9904 38.2176 41.8659C38.4576 41.7415 38.6709 41.617 38.9021 41.4926C39.1421 41.3592 39.1421 41.3504 38.9998 41.0926ZM43.1776 37.2615C42.9643 36.897 42.7776 36.5237 42.5732 36.1504C42.3243 36.6659 42.0487 37.1726 41.7465 37.6526C41.7909 37.7326 41.8354 37.8126 41.8709 37.8926C42.0398 38.1948 42.0398 38.1948 42.3243 38.0348C42.5643 37.9015 42.8043 37.7592 43.0443 37.6437C43.2576 37.5548 43.2932 37.457 43.1776 37.2615Z" fill="#051B30"/>
</svg>
